<svg xmlns="http://www.w3.org/2000/svg" xmlns:xlink="http://www.w3.org/1999/xlink" width="1920" zoomAndPan="magnify" viewBox="0 0 1440 809.999993" height="1080" preserveAspectRatio="xMidYMid meet" version="1.0"><defs><g/><clipPath id="01a3135558"><path d="M 0.761719 0.800781 L 390.28125 0.800781 L 390.28125 168.320312 L 0.761719 168.320312 Z M 0.761719 0.800781 " clip-rule="nonzero"/></clipPath><clipPath id="9ae8c5dead"><rect x="0" width="391" y="0" height="169"/></clipPath><clipPath id="0bfbebc968"><rect x="0" width="391" y="0" height="169"/></clipPath><clipPath id="405270c035"><path d="M 217.15625 475.59375 L 1182.359375 475.59375 L 1182.359375 575.957031 L 217.15625 575.957031 Z M 217.15625 475.59375 " clip-rule="nonzero"/></clipPath><clipPath id="932f4700a6"><path d="M 235.90625 475.59375 L 1163.445312 475.59375 C 1168.417969 475.59375 1173.1875 477.570312 1176.707031 481.085938 C 1180.222656 484.601562 1182.195312 489.371094 1182.195312 494.34375 L 1182.195312 557.207031 C 1182.195312 562.179688 1180.222656 566.949219 1176.707031 570.464844 C 1173.1875 573.980469 1168.417969 575.957031 1163.445312 575.957031 L 235.90625 575.957031 C 230.933594 575.957031 226.164062 573.980469 222.648438 570.464844 C 219.132812 566.949219 217.15625 562.179688 217.15625 557.207031 L 217.15625 494.34375 C 217.15625 489.371094 219.132812 484.601562 222.648438 481.085938 C 226.164062 477.570312 230.933594 475.59375 235.90625 475.59375 Z M 235.90625 475.59375 " clip-rule="nonzero"/></clipPath><clipPath id="5641a6fcb3"><path d="M 0.15625 0.59375 L 965.238281 0.59375 L 965.238281 100.957031 L 0.15625 100.957031 Z M 0.15625 0.59375 " clip-rule="nonzero"/></clipPath><clipPath id="db74ee6fb3"><path d="M 18.90625 0.59375 L 946.445312 0.59375 C 951.417969 0.59375 956.1875 2.570312 959.707031 6.085938 C 963.222656 9.601562 965.195312 14.371094 965.195312 19.34375 L 965.195312 82.207031 C 965.195312 87.179688 963.222656 91.949219 959.707031 95.464844 C 956.1875 98.980469 951.417969 100.957031 946.445312 100.957031 L 18.90625 100.957031 C 13.933594 100.957031 9.164062 98.980469 5.648438 95.464844 C 2.132812 91.949219 0.15625 87.179688 0.15625 82.207031 L 0.15625 19.34375 C 0.15625 14.371094 2.132812 9.601562 5.648438 6.085938 C 9.164062 2.570312 13.933594 0.59375 18.90625 0.59375 Z M 18.90625 0.59375 " clip-rule="nonzero"/></clipPath><clipPath id="f3f0d9cd4a"><rect x="0" width="966" y="0" height="101"/></clipPath><clipPath id="95b35e0d05"><path d="M 217.171875 475.59375 L 1182.40625 475.59375 L 1182.40625 575.953125 L 217.171875 575.953125 Z M 217.171875 475.59375 " clip-rule="nonzero"/></clipPath><clipPath id="f80cdb1be1"><path d="M 235.921875 475.59375 L 1163.433594 475.59375 C 1168.40625 475.59375 1173.175781 477.570312 1176.691406 481.085938 C 1180.207031 484.601562 1182.183594 489.371094 1182.183594 494.34375 L 1182.183594 557.203125 C 1182.183594 562.175781 1180.207031 566.945312 1176.691406 570.460938 C 1173.175781 573.980469 1168.40625 575.953125 1163.433594 575.953125 L 235.921875 575.953125 C 230.949219 575.953125 226.179688 573.980469 222.664062 570.460938 C 219.148438 566.945312 217.171875 562.175781 217.171875 557.203125 L 217.171875 494.34375 C 217.171875 489.371094 219.148438 484.601562 222.664062 481.085938 C 226.179688 477.570312 230.949219 475.59375 235.921875 475.59375 Z M 235.921875 475.59375 " clip-rule="nonzero"/></clipPath></defs><g transform="matrix(1, 0, 0, 1, 503, 286)"><g clip-path="url(#0bfbebc968)"><g clip-path="url(#01a3135558)"><g transform="matrix(1, 0, 0, 1, -0.000000000000056843, 0.000000000000056843)"><g clip-path="url(#9ae8c5dead)"><g fill="#f6bc5d" fill-opacity="1"><g transform="translate(34.23216, 131.768103)"><g><path d="M -16.410156 2.296875 L -31.851562 -108.066406 L 34.199219 -120.375 L 42.3125 -25.085938 L 24.4375 -23.566406 L 20.515625 -41.070312 L 72.285156 -52.671875 L 80.613281 6.832031 L -13.925781 20.058594 Z M 19.117188 -2.675781 L 1.351562 -0.1875 L -1.132812 -17.953125 L 57.875 -26.210938 L 60.363281 -8.445312 L 42.597656 -5.960938 L 39.453125 -28.425781 L 57.21875 -30.914062 L 61.140625 -13.410156 L 8.308594 -1.570312 L 0.136719 -97.59375 L 18.007812 -99.113281 L 21.292969 -81.480469 L -8.425781 -75.941406 L -11.710938 -93.574219 L 6.050781 -96.058594 Z M 19.117188 -2.675781 "/></g></g></g><g fill="#f6bc5d" fill-opacity="1"><g transform="translate(93.481044, 123.037355)"><g><path d="M -18.988281 -56.816406 C -19.367188 -62.554688 -19.355469 -68.136719 -18.960938 -73.554688 C -18.570312 -80.894531 -16.445312 -87.75 -12.585938 -94.117188 C -8.492188 -100.699219 -2.542969 -106.046875 5.257812 -110.167969 C 12.230469 -113.847656 21.394531 -116.292969 32.75 -117.5 L 33.105469 -117.539062 L 36.464844 -117.757812 C 47.007812 -118.457031 55.929688 -117.269531 63.226562 -114.203125 L 63.425781 -114.121094 L 63.625 -114.03125 C 71.058594 -110.695312 77.003906 -106.046875 81.460938 -100.085938 L 81.617188 -99.882812 L 81.765625 -99.667969 C 85.71875 -94.054688 88.417969 -87.726562 89.863281 -80.691406 C 90.96875 -75.296875 91.703125 -69.871094 92.0625 -64.421875 L 93.921875 -42.410156 C 94.304688 -36.675781 94.355469 -31.121094 94.082031 -25.75 C 93.554688 -17.988281 91.480469 -11 87.855469 -4.78125 C 83.800781 2.085938 77.808594 7.613281 69.875 11.800781 C 62.546875 15.609375 53.089844 17.894531 41.496094 18.660156 C 30.324219 19.398438 21.035156 18.277344 13.628906 15.300781 C 5.617188 12.148438 -0.753906 7.453125 -5.484375 1.210938 C -9.738281 -4.273438 -12.675781 -10.664062 -14.296875 -17.960938 C -15.449219 -23.089844 -16.355469 -28.296875 -17.011719 -33.585938 L -17.058594 -33.9375 L -18.960938 -56.488281 Z M 16.785156 -59.507812 L 18.660156 -37.308594 L 0.785156 -35.796875 L 18.585938 -38.007812 C 19.097656 -33.878906 19.8125 -29.792969 20.722656 -25.742188 C 21.183594 -23.679688 21.976562 -21.914062 23.113281 -20.453125 C 23.785156 -19.5625 25.082031 -18.742188 27.007812 -17.984375 C 27.898438 -17.625 29.179688 -17.359375 30.851562 -17.183594 C 33.167969 -16.941406 35.929688 -16.921875 39.132812 -17.136719 C 45.722656 -17.570312 50.386719 -18.5 53.125 -19.921875 C 55.070312 -20.949219 56.320312 -21.925781 56.863281 -22.851562 C 57.667969 -24.230469 58.132812 -25.808594 58.253906 -27.585938 C 58.457031 -31.558594 58.433594 -35.492188 58.175781 -39.394531 L 56.265625 -62.058594 C 56.015625 -65.878906 55.5 -69.6875 54.722656 -73.480469 C 54.28125 -75.632812 53.515625 -77.476562 52.433594 -79.015625 L 67.101562 -89.34375 L 52.738281 -78.597656 C 51.988281 -79.601562 50.71875 -80.503906 48.933594 -81.304688 L 56.277344 -97.667969 L 49.332031 -81.132812 C 48.539062 -81.464844 47.429688 -81.714844 46 -81.882812 C 43.984375 -82.121094 41.59375 -82.144531 38.824219 -81.964844 L 35.824219 -81.765625 L 34.644531 -99.664062 L 36.539062 -81.828125 C 29.761719 -81.105469 24.914062 -79.976562 22.007812 -78.441406 C 19.925781 -77.34375 18.621094 -76.371094 18.09375 -75.527344 C 17.34375 -74.285156 16.917969 -72.753906 16.816406 -70.929688 C 16.542969 -67.175781 16.539062 -63.257812 16.808594 -59.179688 Z M 39.050781 -47.253906 C 38.25 -47.132812 37.65625 -47.015625 37.269531 -46.902344 C 37.605469 -47 38.078125 -47.238281 38.683594 -47.613281 C 40.242188 -48.617188 41.46875 -49.804688 42.367188 -51.175781 C 43.113281 -52.324219 43.613281 -53.511719 43.859375 -54.730469 L 43.808594 -54.472656 L 43.75 -54.21875 C 43.773438 -54.320312 43.785156 -54.390625 43.789062 -54.425781 C 43.78125 -54.332031 43.769531 -54.203125 43.765625 -54.035156 C 43.746094 -53.417969 43.777344 -52.652344 43.863281 -51.726562 C 44.199219 -48.113281 44.539062 -43.636719 44.894531 -38.296875 C 45.089844 -35.335938 45.300781 -32.742188 45.53125 -30.515625 C 45.582031 -30.019531 45.640625 -29.632812 45.707031 -29.351562 C 45.714844 -29.324219 45.722656 -29.300781 45.726562 -29.28125 C 45.726562 -29.285156 45.722656 -29.292969 45.71875 -29.308594 C 45.6875 -29.398438 45.644531 -29.507812 45.589844 -29.628906 C 45.398438 -30.082031 45.050781 -30.625 44.539062 -31.257812 C 43.777344 -32.207031 42.855469 -33.015625 41.777344 -33.683594 C 40.484375 -34.484375 39.175781 -35 37.851562 -35.234375 C 37.382812 -35.316406 37.042969 -35.351562 36.835938 -35.335938 L 38.0625 -35.417969 L 39.246094 -17.519531 L 36.914062 -35.304688 C 37.132812 -35.332031 37.3125 -35.363281 37.449219 -35.390625 C 37.472656 -35.394531 37.484375 -35.398438 37.484375 -35.398438 C 37.449219 -35.390625 37.40625 -35.375 37.351562 -35.359375 C 36.636719 -35.125 35.871094 -34.714844 35.058594 -34.128906 L 35.394531 -34.371094 L 35.742188 -34.597656 C 34.566406 -33.832031 33.5625 -32.871094 32.738281 -31.71875 C 32.042969 -30.746094 31.539062 -29.734375 31.226562 -28.683594 L 48.429688 -23.605469 L 31.078125 -28.144531 C 31.046875 -28.015625 31.023438 -27.910156 31.007812 -27.828125 C 31.011719 -27.851562 31.015625 -27.894531 31.023438 -27.964844 C 31.054688 -28.335938 31.0625 -28.8125 31.042969 -29.398438 C 30.972656 -31.820312 30.875 -34.640625 30.753906 -37.863281 C 30.601562 -42.917969 30.460938 -47.144531 30.328125 -50.546875 C 30.246094 -52.617188 30.089844 -54.058594 29.863281 -54.867188 C 29.960938 -54.515625 30.160156 -54.082031 30.457031 -53.5625 C 31.144531 -52.351562 32.089844 -51.265625 33.289062 -50.304688 L 44.511719 -64.296875 L 34.535156 -49.386719 C 35.953125 -48.441406 37.417969 -47.824219 38.929688 -47.542969 C 39.507812 -47.433594 39.960938 -47.386719 40.285156 -47.410156 L 38.921875 -47.320312 C 39.648438 -47.367188 40.359375 -47.484375 41.054688 -47.671875 L 40.0625 -47.40625 Z M 33.722656 -82.730469 L 36.386719 -64.992188 L 31.71875 -82.308594 C 33.308594 -82.738281 34.921875 -83.007812 36.558594 -83.117188 L 37.921875 -83.207031 C 44.34375 -83.628906 49.867188 -82.296875 54.488281 -79.203125 L 55.132812 -78.769531 L 55.734375 -78.289062 C 59.898438 -74.949219 62.792969 -70.347656 64.425781 -64.484375 C 65.398438 -60.988281 65.980469 -56.820312 66.171875 -51.96875 C 66.3125 -48.445312 66.453125 -44.203125 66.601562 -39.234375 C 66.726562 -35.898438 66.828125 -32.980469 66.898438 -30.480469 C 67.027344 -26.207031 66.65625 -22.402344 65.785156 -19.066406 L 65.714844 -18.792969 L 65.632812 -18.523438 C 64.800781 -15.703125 63.554688 -13.136719 61.898438 -10.824219 C 60.113281 -8.328125 57.929688 -6.242188 55.351562 -4.558594 L 45.546875 -19.578125 L 56.035156 -5.027344 C 52.191406 -2.257812 47.375 -0.496094 41.578125 0.265625 L 41.003906 0.339844 L 39.199219 0.460938 C 32.921875 0.875 27.488281 -0.339844 22.894531 -3.183594 C 18.339844 -6 14.980469 -9.953125 12.816406 -15.039062 C 11.289062 -18.472656 10.300781 -22.402344 9.847656 -26.828125 C 9.574219 -29.496094 9.320312 -32.53125 9.097656 -35.933594 C 8.765625 -40.960938 8.449219 -45.113281 8.144531 -48.398438 C 7.652344 -53.691406 7.875 -58.351562 8.816406 -62.378906 L 26.28125 -58.296875 L 8.703125 -61.867188 C 9.363281 -65.121094 10.566406 -68.089844 12.3125 -70.761719 C 14.199219 -73.664062 16.714844 -76.121094 19.847656 -78.144531 C 23.421875 -80.347656 28.046875 -81.878906 33.722656 -82.730469 Z M 33.722656 -82.730469 "/></g></g></g><g fill="#f6bc5d" fill-opacity="1"><g transform="translate(171.871761, 117.762542)"><g><path d="M 40.371094 21.882812 C 32.566406 21.757812 25.664062 20.566406 19.65625 18.320312 C 13.351562 15.960938 7.941406 12.671875 3.417969 8.449219 C -1.015625 4.460938 -4.539062 -0.335938 -7.148438 -5.9375 C -9.367188 -10.429688 -11.054688 -15.363281 -12.210938 -20.738281 C -13.261719 -25.496094 -13.914062 -30.429688 -14.171875 -35.535156 C -14.394531 -40.035156 -14.472656 -44.488281 -14.398438 -48.894531 C -14.328125 -53.179688 -14.160156 -57.417969 -13.898438 -61.609375 L 4.003906 -60.480469 L -13.917969 -61.203125 C -13.722656 -66.097656 -13.113281 -70.839844 -12.09375 -75.421875 C -10.9375 -80.507812 -9.175781 -85.25 -6.816406 -89.652344 L 8.992188 -81.175781 L -7.015625 -89.265625 C -4.300781 -94.636719 -0.457031 -99.261719 4.515625 -103.140625 C 9.140625 -106.746094 14.675781 -109.519531 21.121094 -111.460938 C 26.953125 -113.214844 33.8125 -114.199219 41.699219 -114.414062 L 42.089844 -114.421875 L 44.664062 -114.382812 C 51.84375 -114.261719 58.222656 -113.199219 63.804688 -111.191406 C 69.792969 -108.890625 74.90625 -105.851562 79.136719 -102.082031 C 83.324219 -98.21875 86.695312 -93.855469 89.246094 -88.988281 L 89.394531 -88.707031 L 89.53125 -88.417969 C 91.546875 -84.214844 93.128906 -79.839844 94.277344 -75.292969 L 94.347656 -75.019531 L 94.40625 -74.746094 C 95.335938 -70.507812 95.988281 -66.21875 96.363281 -61.882812 L 96.382812 -61.640625 L 96.398438 -61.394531 C 96.636719 -57.300781 96.722656 -53.296875 96.660156 -49.386719 L 96.402344 -33.820312 L 34.425781 -26.054688 L 34.769531 -46.71875 C 34.796875 -48.386719 34.753906 -50.007812 34.640625 -51.589844 L 52.535156 -52.847656 L 34.714844 -50.820312 C 34.625 -51.589844 34.5 -52.210938 34.332031 -52.6875 C 34.589844 -51.949219 35.09375 -51.191406 35.847656 -50.417969 L 48.738281 -62.890625 L 36.398438 -49.867188 C 37.625 -48.707031 39.027344 -47.832031 40.601562 -47.242188 C 41.828125 -46.785156 43.039062 -46.546875 44.230469 -46.527344 L 43 -46.546875 C 44.9375 -46.515625 46.753906 -46.824219 48.449219 -47.46875 L 47.023438 -46.925781 L 45.53125 -46.628906 C 45.027344 -46.53125 44.667969 -46.445312 44.453125 -46.371094 C 44.789062 -46.488281 45.21875 -46.707031 45.738281 -47.027344 C 47.800781 -48.351562 49.203125 -49.972656 49.945312 -51.882812 C 50.011719 -52.054688 50.0625 -52.207031 50.09375 -52.332031 L 50.101562 -52.351562 C 50.09375 -52.320312 50.085938 -52.285156 50.078125 -52.242188 C 50.011719 -51.851562 49.960938 -51.328125 49.925781 -50.671875 C 49.800781 -48.042969 49.699219 -44.546875 49.628906 -40.1875 C 49.5625 -36.363281 49.554688 -33.089844 49.59375 -30.359375 C 49.605469 -29.609375 49.644531 -28.984375 49.710938 -28.476562 C 49.730469 -28.332031 49.75 -28.214844 49.769531 -28.128906 L 49.769531 -28.117188 C 49.761719 -28.148438 49.753906 -28.183594 49.738281 -28.226562 C 49.507812 -28.960938 49.132812 -29.707031 48.617188 -30.457031 C 47.859375 -31.566406 46.90625 -32.519531 45.761719 -33.308594 L 46 -33.144531 L 46.234375 -32.972656 C 44.980469 -33.894531 43.699219 -34.527344 42.382812 -34.863281 C 42.09375 -34.9375 41.835938 -34.988281 41.609375 -35.015625 L 41.582031 -35.023438 C 41.746094 -35.019531 41.847656 -35.019531 41.882812 -35.023438 C 41.644531 -34.996094 41.355469 -34.9375 41.011719 -34.839844 C 39.230469 -34.328125 37.597656 -33.3125 36.117188 -31.792969 L 36.308594 -31.984375 L 36.503906 -32.175781 C 35.363281 -31.074219 34.558594 -29.914062 34.085938 -28.699219 C 34.011719 -28.515625 33.964844 -28.375 33.945312 -28.28125 C 33.96875 -28.394531 33.996094 -28.5625 34.023438 -28.789062 L 51.828125 -26.617188 L 33.894531 -26.914062 L 33.898438 -27.050781 L 51.832031 -26.753906 L 52.894531 -8.851562 L 42.085938 -8.207031 L 41.023438 -26.113281 L 58.957031 -25.816406 L 58.957031 -25.777344 L 23.089844 -26.371094 L 23.09375 -26.613281 L 23.105469 -27.5 L 23.15625 -30.507812 L 23.21875 -34.332031 L 23.554688 -54.628906 L 48.355469 -55.523438 L 49.003906 -37.597656 L 47.808594 -55.496094 L 65.871094 -56.703125 L 67.066406 -38.804688 L 65.238281 -56.648438 L 96.832031 -59.882812 L 96.5 -39.6875 C 96.429688 -35.503906 96.210938 -31.371094 95.835938 -27.285156 C 95.410156 -22.628906 94.625 -18.179688 93.488281 -13.925781 C 92.214844 -9.03125 90.355469 -4.511719 87.917969 -0.367188 C 84.875 4.675781 80.953125 8.902344 76.148438 12.304688 C 71.621094 15.550781 66.320312 18.015625 60.25 19.699219 C 54.425781 21.277344 47.800781 22.007812 40.371094 21.882812 Z M 40.960938 -13.984375 C 45.007812 -13.917969 48.238281 -14.210938 50.652344 -14.867188 C 52.636719 -15.417969 54.222656 -16.117188 55.414062 -16.96875 C 56.140625 -17.484375 56.667969 -18.015625 57 -18.566406 C 57.75 -19.835938 58.359375 -21.382812 58.835938 -23.199219 C 59.445312 -25.480469 59.871094 -27.933594 60.109375 -30.558594 C 60.402344 -33.75 60.578125 -36.992188 60.632812 -40.277344 L 78.566406 -39.980469 L 80.390625 -22.136719 L 68.574219 -20.929688 L 49.925781 -19.683594 L 41.855469 -19.390625 L 41.207031 -37.316406 L 59.144531 -37.023438 L 59.089844 -33.742188 L 59.027344 -29.917969 L 58.976562 -26.910156 L 58.960938 -26.023438 L 58.957031 -25.777344 C 58.9375 -24.601562 58.804688 -23.4375 58.554688 -22.285156 C 58.304688 -21.132812 57.949219 -20.019531 57.480469 -18.9375 C 57.011719 -17.855469 56.441406 -16.832031 55.769531 -15.863281 C 55.101562 -14.894531 54.34375 -14.003906 53.496094 -13.183594 C 52.648438 -12.363281 51.730469 -11.636719 50.742188 -10.996094 C 49.75 -10.359375 48.707031 -9.824219 47.613281 -9.390625 C 46.519531 -8.957031 45.390625 -8.636719 44.230469 -8.425781 C 43.074219 -8.214844 41.90625 -8.121094 40.726562 -8.140625 C 39.550781 -8.160156 38.386719 -8.292969 37.234375 -8.542969 C 36.082031 -8.789062 34.96875 -9.148438 33.886719 -9.617188 C 32.804688 -10.085938 31.78125 -10.65625 30.8125 -11.328125 C 29.84375 -11.996094 28.953125 -12.753906 28.132812 -13.601562 C 27.3125 -14.449219 26.585938 -15.367188 25.945312 -16.355469 C 25.308594 -17.347656 24.773438 -18.386719 24.339844 -19.484375 C 23.90625 -20.578125 23.585938 -21.707031 23.375 -22.863281 C 23.164062 -24.023438 23.070312 -25.191406 23.089844 -26.371094 L 23.363281 -43.03125 L 70.085938 -45.808594 L 69.75 -25.382812 L 69.632812 -24.445312 C 68.699219 -16.789062 65.972656 -10.769531 61.449219 -6.394531 L 48.976562 -19.285156 L 61.832031 -6.777344 C 56.746094 -1.550781 49.800781 0.992188 40.988281 0.847656 C 34.605469 0.742188 29.246094 -0.917969 24.902344 -4.125 L 35.570312 -18.550781 L 25.375 -3.789062 C 20.648438 -7.054688 17.363281 -11.605469 15.523438 -17.441406 C 14.394531 -21.035156 13.792969 -25.164062 13.722656 -29.828125 C 13.679688 -32.933594 13.691406 -36.582031 13.757812 -40.777344 C 13.835938 -45.523438 13.949219 -49.40625 14.097656 -52.421875 C 14.328125 -57.175781 15.125 -61.3125 16.492188 -64.839844 C 18.5625 -70.191406 22.011719 -74.417969 26.839844 -77.519531 C 29.980469 -79.464844 33.898438 -80.902344 38.59375 -81.828125 L 42.0625 -64.230469 L 35.675781 -80.992188 C 38.285156 -81.984375 40.925781 -82.460938 43.589844 -82.417969 L 44.820312 -82.394531 C 47.746094 -82.347656 50.523438 -81.832031 53.152344 -80.851562 C 56.128906 -79.738281 58.769531 -78.089844 61.074219 -75.910156 L 61.355469 -75.640625 L 61.628906 -75.363281 C 64.527344 -72.363281 66.71875 -68.753906 68.195312 -64.53125 C 69.246094 -61.527344 69.96875 -58.308594 70.355469 -54.875 L 70.402344 -54.492188 L 70.425781 -54.109375 C 70.613281 -51.492188 70.679688 -48.832031 70.636719 -46.125 L 52.703125 -46.421875 L 50.472656 -64.21875 L 76.496094 -67.480469 L 78.726562 -49.683594 L 60.789062 -49.980469 C 60.839844 -52.992188 60.773438 -56.101562 60.585938 -59.300781 L 78.492188 -60.347656 L 60.621094 -58.8125 C 60.382812 -61.59375 59.964844 -64.339844 59.367188 -67.054688 L 76.886719 -70.898438 L 59.496094 -66.503906 C 58.9375 -68.730469 58.164062 -70.863281 57.183594 -72.90625 L 73.359375 -80.660156 L 57.472656 -72.332031 C 56.84375 -73.535156 56.109375 -74.523438 55.269531 -75.300781 C 54.292969 -76.167969 53.089844 -76.882812 51.652344 -77.4375 C 49.808594 -78.101562 47.28125 -78.460938 44.074219 -78.511719 L 41.886719 -78.546875 L 42.183594 -96.484375 L 42.667969 -78.554688 C 37.972656 -78.425781 34.238281 -77.945312 31.464844 -77.109375 C 29.300781 -76.457031 27.671875 -75.703125 26.574219 -74.847656 C 25.824219 -74.265625 25.300781 -73.675781 25 -73.085938 L 24.902344 -72.890625 L 24.800781 -72.699219 C 23.964844 -71.140625 23.339844 -69.453125 22.925781 -67.636719 C 22.371094 -65.140625 22.035156 -62.515625 21.925781 -59.761719 L 21.917969 -59.558594 L 21.90625 -59.355469 C 21.675781 -55.71875 21.53125 -52.035156 21.46875 -48.304688 C 21.410156 -44.695312 21.472656 -41.035156 21.65625 -37.328125 C 21.8125 -34.226562 22.214844 -31.210938 22.859375 -28.289062 C 23.394531 -25.800781 24.230469 -23.40625 25.363281 -21.097656 C 25.917969 -19.90625 26.765625 -18.796875 27.898438 -17.773438 C 28.941406 -16.800781 30.382812 -15.96875 32.230469 -15.277344 C 34.375 -14.476562 37.285156 -14.042969 40.960938 -13.984375 Z M 40.960938 -13.984375 "/></g></g></g><g fill="#f6bc5d" fill-opacity="1"><g transform="translate(250.491844, 119.674517)"><g><path d="M 56.753906 -90.992188 L 44.097656 21.304688 L -16.019531 16.78125 L -6.875 -112.238281 L 58.9375 -110.382812 Z M 21.105469 -95.011719 L 38.929688 -93.003906 L 38.425781 -75.074219 L 9.296875 -75.894531 L 9.800781 -93.824219 L 27.691406 -92.554688 L 21.027344 1.503906 L 3.132812 0.234375 L 4.480469 -17.652344 L 29.554688 -15.765625 L 28.207031 2.121094 L 10.386719 0.113281 Z M 21.105469 -95.011719 "/></g></g></g><g fill="#f6bc5d" fill-opacity="1"><g transform="translate(283.13779, 121.480258)"><g><path d="M -14.632812 -2.175781 L 1.398438 -112.140625 L 59.085938 -107.472656 L 68.867188 -42.058594 L 51.125 -39.40625 L 33.34375 -41.761719 L 41.960938 -106.785156 L 106.007812 -101.488281 L 84.671875 29.3125 L 30.449219 22.128906 L 18.972656 -35.195312 L 36.558594 -38.71875 L 54.339844 -36.363281 L 46.3125 24.230469 L -17.253906 15.808594 Z M 20.863281 3 L 3.117188 0.414062 L 5.472656 -17.367188 L 33.246094 -13.6875 L 30.886719 4.09375 L 13.105469 1.738281 L 18.777344 -41.074219 L 54.148438 -42.238281 L 63.109375 2.507812 L 45.519531 6.03125 L 47.875 -11.75 L 72.125 -8.539062 L 69.769531 9.242188 L 52.066406 6.355469 L 67.476562 -88.101562 L 85.179688 -85.210938 L 83.699219 -67.335938 L 56.019531 -69.625 L 57.5 -87.5 L 75.28125 -85.144531 L 68.90625 -37.050781 L 33.386719 -36.753906 L 25.714844 -88.089844 L 43.453125 -90.742188 L 42.007812 -72.863281 L 15.273438 -75.027344 L 16.71875 -92.902344 L 34.46875 -90.316406 Z M 20.863281 3 "/></g></g></g><g fill="#52639b" fill-opacity="1"><g transform="translate(34.23216, 131.768103)"><g><path d="M 1.34375 -0.1875 L -11.71875 -93.578125 L 18 -99.109375 L 24.4375 -23.578125 L 57.21875 -30.921875 L 60.359375 -8.453125 Z M 1.34375 -0.1875 "/></g></g></g><g fill="#52639b" fill-opacity="1"><g transform="translate(93.481044, 123.037355)"><g><path d="M -1.078125 -58 C -1.398438 -62.914062 -1.398438 -67.664062 -1.078125 -72.25 C -0.828125 -76.820312 0.453125 -81.007812 2.765625 -84.8125 C 5.054688 -88.519531 8.675781 -91.6875 13.625 -94.3125 C 18.570312 -96.914062 25.578125 -98.691406 34.640625 -99.640625 L 37.640625 -99.84375 C 45.359375 -100.351562 51.570312 -99.628906 56.28125 -97.671875 C 60.882812 -95.585938 64.492188 -92.8125 67.109375 -89.34375 C 69.609375 -85.757812 71.332031 -81.671875 72.28125 -77.078125 C 73.226562 -72.492188 73.859375 -67.882812 74.171875 -63.25 L 76.046875 -40.890625 C 76.367188 -36.078125 76.40625 -31.335938 76.15625 -26.671875 C 75.832031 -21.898438 74.566406 -17.613281 72.359375 -13.8125 C 70.054688 -9.925781 66.429688 -6.675781 61.484375 -4.0625 C 56.453125 -1.4375 49.390625 0.175781 40.296875 0.78125 C 31.847656 1.332031 25.1875 0.625 20.3125 -1.34375 C 15.351562 -3.300781 11.519531 -6.0625 8.8125 -9.625 C 6.113281 -13.09375 4.242188 -17.171875 3.203125 -21.859375 C 2.179688 -26.441406 1.378906 -31.085938 0.796875 -35.796875 Z M 36.390625 -64.984375 C 33.128906 -64.492188 30.753906 -63.796875 29.265625 -62.890625 C 27.691406 -61.867188 26.695312 -60.335938 26.28125 -58.296875 C 25.78125 -56.171875 25.691406 -53.421875 26.015625 -50.046875 C 26.328125 -46.609375 26.648438 -42.296875 26.984375 -37.109375 C 27.203125 -33.929688 27.4375 -31.113281 27.6875 -28.65625 C 27.945312 -26.125 28.453125 -24.015625 29.203125 -22.328125 C 29.960938 -20.554688 31.003906 -19.257812 32.328125 -18.4375 C 33.660156 -17.601562 35.554688 -17.269531 38.015625 -17.4375 L 39.234375 -17.515625 C 42.046875 -17.890625 44.144531 -18.578125 45.53125 -19.578125 C 46.9375 -20.492188 47.898438 -21.832031 48.421875 -23.59375 C 48.867188 -25.28125 49.054688 -27.390625 48.984375 -29.921875 C 48.898438 -32.398438 48.796875 -35.269531 48.671875 -38.53125 C 48.523438 -43.550781 48.382812 -47.789062 48.25 -51.25 C 48.113281 -54.71875 47.742188 -57.523438 47.140625 -59.671875 C 46.546875 -61.828125 45.671875 -63.363281 44.515625 -64.28125 C 43.265625 -65.125 41.457031 -65.46875 39.09375 -65.3125 L 37.734375 -65.21875 C 37.273438 -65.1875 36.828125 -65.109375 36.390625 -64.984375 Z M 36.390625 -64.984375 "/></g></g></g><g fill="#52639b" fill-opacity="1"><g transform="translate(171.871761, 117.762542)"><g><path d="M 40.671875 3.953125 C 34.929688 3.859375 30.023438 3.046875 25.953125 1.515625 C 21.867188 -0.00390625 18.4375 -2.066406 15.65625 -4.671875 C 12.875 -7.171875 10.6875 -10.125 9.09375 -13.53125 C 7.425781 -16.914062 6.171875 -20.578125 5.328125 -24.515625 C 4.472656 -28.359375 3.941406 -32.332031 3.734375 -36.4375 C 3.535156 -40.539062 3.46875 -44.597656 3.53125 -48.609375 C 3.601562 -52.609375 3.757812 -56.5625 4 -60.46875 C 4.15625 -64.300781 4.625 -67.988281 5.40625 -71.53125 C 6.195312 -74.96875 7.394531 -78.179688 9 -81.171875 C 10.5 -84.148438 12.679688 -86.753906 15.546875 -88.984375 C 18.410156 -91.222656 21.992188 -92.988281 26.296875 -94.28125 C 30.597656 -95.570312 35.894531 -96.300781 42.1875 -96.46875 L 44.359375 -96.4375 C 49.554688 -96.351562 54.015625 -95.644531 57.734375 -94.3125 C 61.429688 -92.882812 64.585938 -91.007812 67.203125 -88.6875 C 69.710938 -86.363281 71.757812 -83.6875 73.34375 -80.65625 C 74.84375 -77.53125 76.019531 -74.273438 76.875 -70.890625 C 77.644531 -67.421875 78.179688 -63.898438 78.484375 -60.328125 C 78.691406 -56.703125 78.769531 -53.15625 78.71875 -49.6875 L 52.703125 -46.421875 C 52.734375 -48.609375 52.679688 -50.753906 52.546875 -52.859375 C 52.304688 -54.953125 51.882812 -56.867188 51.28125 -58.609375 C 50.65625 -60.347656 49.804688 -61.773438 48.734375 -62.890625 C 47.660156 -63.898438 46.257812 -64.421875 44.53125 -64.453125 L 43.3125 -64.46875 C 42.945312 -64.476562 42.53125 -64.394531 42.0625 -64.21875 C 39.507812 -63.71875 37.582031 -63.066406 36.28125 -62.265625 C 34.90625 -61.378906 33.882812 -60.078125 33.21875 -58.359375 C 32.550781 -56.640625 32.148438 -54.367188 32.015625 -51.546875 C 31.867188 -48.722656 31.757812 -45.035156 31.6875 -40.484375 C 31.625 -36.472656 31.613281 -33.007812 31.65625 -30.09375 C 31.707031 -27.175781 32.035156 -24.757812 32.640625 -22.84375 C 33.242188 -20.914062 34.21875 -19.484375 35.5625 -18.546875 C 36.832031 -17.617188 38.742188 -17.132812 41.296875 -17.09375 C 44.941406 -17.03125 47.503906 -17.765625 48.984375 -19.296875 C 50.460938 -20.722656 51.410156 -23.164062 51.828125 -26.625 L 51.828125 -26.765625 L 41.03125 -26.109375 C 41.03125 -26.015625 41.03125 -26.082031 41.03125 -26.3125 C 41.039062 -26.539062 41.046875 -26.835938 41.046875 -27.203125 L 41.109375 -30.21875 L 41.171875 -34.03125 L 41.21875 -37.3125 L 49 -37.609375 L 67.0625 -38.8125 L 78.546875 -39.984375 C 78.492188 -36.253906 78.300781 -32.566406 77.96875 -28.921875 C 77.632812 -25.285156 77.03125 -21.832031 76.15625 -18.5625 C 75.28125 -15.207031 74.046875 -12.175781 72.453125 -9.46875 C 70.765625 -6.664062 68.539062 -4.289062 65.78125 -2.34375 C 62.914062 -0.28125 59.472656 1.300781 55.453125 2.40625 C 51.335938 3.53125 46.410156 4.046875 40.671875 3.953125 Z M 40.671875 3.953125 "/></g></g></g><g fill="#52639b" fill-opacity="1"><g transform="translate(250.491844, 119.674517)"><g><path d="M 38.921875 -93 L 28.203125 2.125 L 3.125 0.234375 L 9.8125 -93.828125 Z M 38.921875 -93 "/></g></g></g><g fill="#52639b" fill-opacity="1"><g transform="translate(283.13779, 121.480258)"><g><path d="M 3.109375 0.40625 L 16.734375 -92.90625 L 43.453125 -90.734375 L 51.125 -39.421875 L 57.5 -87.515625 L 85.171875 -85.203125 L 69.765625 9.25 L 45.53125 6.03125 L 36.5625 -38.71875 L 30.890625 4.09375 Z M 3.109375 0.40625 "/></g></g></g></g></g></g></g></g><g clip-path="url(#405270c035)"><g clip-path="url(#932f4700a6)"><g transform="matrix(1, 0, 0, 1, 217, 475)"><g clip-path="url(#f3f0d9cd4a)"><g clip-path="url(#5641a6fcb3)"><g clip-path="url(#db74ee6fb3)"><path fill="#f6bc5d" d="M 0.15625 0.59375 L 965.359375 0.59375 L 965.359375 100.957031 L 0.15625 100.957031 Z M 0.15625 0.59375 " fill-opacity="1" fill-rule="nonzero"/></g></g></g></g></g></g><g clip-path="url(#95b35e0d05)"><g clip-path="url(#f80cdb1be1)"><path fill="#52639b" d="M 274.921875 465.84375 L 304.171875 465.84375 L 304.171875 485.34375 L 274.921875 485.34375 Z M 313.921875 465.84375 L 343.171875 465.84375 L 343.171875 485.34375 L 313.921875 485.34375 Z M 352.921875 465.84375 L 382.171875 465.84375 L 382.171875 485.34375 L 352.921875 485.34375 Z M 391.921875 465.84375 L 421.171875 465.84375 L 421.171875 485.34375 L 391.921875 485.34375 Z M 430.921875 465.84375 L 460.171875 465.84375 L 460.171875 485.34375 L 430.921875 485.34375 Z M 469.921875 465.84375 L 499.171875 465.84375 L 499.171875 485.34375 L 469.921875 485.34375 Z M 508.921875 465.84375 L 538.171875 465.84375 L 538.171875 485.34375 L 508.921875 485.34375 Z M 547.921875 465.84375 L 577.171875 465.84375 L 577.171875 485.34375 L 547.921875 485.34375 Z M 586.921875 465.84375 L 616.171875 465.84375 L 616.171875 485.34375 L 586.921875 485.34375 Z M 625.921875 465.84375 L 655.171875 465.84375 L 655.171875 485.34375 L 625.921875 485.34375 Z M 664.921875 465.84375 L 694.171875 465.84375 L 694.171875 485.34375 L 664.921875 485.34375 Z M 703.921875 465.84375 L 733.171875 465.84375 L 733.171875 485.34375 L 703.921875 485.34375 Z M 742.921875 465.84375 L 772.171875 465.84375 L 772.171875 485.34375 L 742.921875 485.34375 Z M 781.921875 465.84375 L 811.171875 465.84375 L 811.171875 485.34375 L 781.921875 485.34375 Z M 820.921875 465.84375 L 850.171875 465.84375 L 850.171875 485.34375 L 820.921875 485.34375 Z M 859.921875 465.84375 L 889.171875 465.84375 L 889.171875 485.34375 L 859.921875 485.34375 Z M 898.921875 465.84375 L 928.171875 465.84375 L 928.171875 485.34375 L 898.921875 485.34375 Z M 937.921875 465.84375 L 967.171875 465.84375 L 967.171875 485.34375 L 937.921875 485.34375 Z M 976.921875 465.84375 L 1006.171875 465.84375 L 1006.171875 485.34375 L 976.921875 485.34375 Z M 1015.921875 465.84375 L 1045.171875 465.84375 L 1045.171875 485.34375 L 1015.921875 485.34375 Z M 1054.921875 465.84375 L 1084.171875 465.84375 L 1084.171875 485.34375 L 1054.921875 485.34375 Z M 1093.921875 465.84375 L 1123.171875 465.84375 L 1123.171875 485.34375 L 1093.921875 485.34375 Z M 1132.921875 465.84375 L 1162.171875 465.84375 L 1162.171875 485.34375 L 1132.921875 485.34375 Z M 1175.914062 468.722656 C 1178.777344 470.117188 1181.332031 471.941406 1183.585938 474.191406 C 1189.148438 479.757812 1191.933594 486.472656 1191.933594 494.34375 L 1191.933594 502.679688 L 1172.433594 502.679688 L 1172.433594 494.34375 C 1172.433594 491.859375 1171.554688 489.738281 1169.796875 487.980469 C 1169.085938 487.269531 1168.277344 486.695312 1167.375 486.253906 Z M 1191.933594 512.429688 L 1191.933594 541.679688 L 1172.433594 541.679688 L 1172.433594 512.429688 Z M 1191.933594 551.429688 L 1191.933594 557.203125 C 1191.933594 565.074219 1189.148438 571.792969 1183.585938 577.355469 C 1180.378906 580.5625 1176.625 582.871094 1172.316406 584.285156 L 1166.238281 565.757812 C 1167.597656 565.308594 1168.785156 564.582031 1169.796875 563.570312 C 1171.554688 561.8125 1172.433594 559.691406 1172.433594 557.203125 L 1172.433594 551.429688 Z M 1159.613281 585.703125 L 1130.363281 585.703125 L 1130.363281 566.203125 L 1159.613281 566.203125 Z M 1120.613281 585.703125 L 1091.363281 585.703125 L 1091.363281 566.203125 L 1120.613281 566.203125 Z M 1081.613281 585.703125 L 1052.363281 585.703125 L 1052.363281 566.203125 L 1081.613281 566.203125 Z M 1042.613281 585.703125 L 1013.363281 585.703125 L 1013.363281 566.203125 L 1042.613281 566.203125 Z M 1003.613281 585.703125 L 974.363281 585.703125 L 974.363281 566.203125 L 1003.613281 566.203125 Z M 964.613281 585.703125 L 935.363281 585.703125 L 935.363281 566.203125 L 964.613281 566.203125 Z M 925.613281 585.703125 L 896.363281 585.703125 L 896.363281 566.203125 L 925.613281 566.203125 Z M 886.613281 585.703125 L 857.363281 585.703125 L 857.363281 566.203125 L 886.613281 566.203125 Z M 847.613281 585.703125 L 818.363281 585.703125 L 818.363281 566.203125 L 847.613281 566.203125 Z M 808.613281 585.703125 L 779.363281 585.703125 L 779.363281 566.203125 L 808.613281 566.203125 Z M 769.613281 585.703125 L 740.363281 585.703125 L 740.363281 566.203125 L 769.613281 566.203125 Z M 730.613281 585.703125 L 701.363281 585.703125 L 701.363281 566.203125 L 730.613281 566.203125 Z M 691.613281 585.703125 L 662.363281 585.703125 L 662.363281 566.203125 L 691.613281 566.203125 Z M 652.613281 585.703125 L 623.363281 585.703125 L 623.363281 566.203125 L 652.613281 566.203125 Z M 613.613281 585.703125 L 584.363281 585.703125 L 584.363281 566.203125 L 613.613281 566.203125 Z M 574.613281 585.703125 L 545.363281 585.703125 L 545.363281 566.203125 L 574.613281 566.203125 Z M 535.613281 585.703125 L 506.363281 585.703125 L 506.363281 566.203125 L 535.613281 566.203125 Z M 496.613281 585.703125 L 467.363281 585.703125 L 467.363281 566.203125 L 496.613281 566.203125 Z M 457.613281 585.703125 L 428.363281 585.703125 L 428.363281 566.203125 L 457.613281 566.203125 Z M 418.613281 585.703125 L 389.363281 585.703125 L 389.363281 566.203125 L 418.613281 566.203125 Z M 379.613281 585.703125 L 350.363281 585.703125 L 350.363281 566.203125 L 379.613281 566.203125 Z M 340.613281 585.703125 L 311.363281 585.703125 L 311.363281 566.203125 L 340.613281 566.203125 Z M 301.613281 585.703125 L 272.363281 585.703125 L 272.363281 566.203125 L 301.613281 566.203125 Z M 262.613281 585.703125 L 235.921875 585.703125 C 234.617188 585.703125 233.320312 585.617188 232.03125 585.4375 L 234.691406 566.121094 C 235.101562 566.175781 235.507812 566.203125 235.921875 566.203125 L 262.613281 566.203125 Z M 218.511719 579.769531 C 217.546875 579.023438 216.632812 578.21875 215.769531 577.355469 C 210.203125 571.792969 207.421875 565.074219 207.421875 557.203125 L 207.421875 545.050781 L 226.921875 545.050781 L 226.921875 557.203125 C 226.921875 559.691406 227.800781 561.8125 229.558594 563.570312 C 229.832031 563.839844 230.121094 564.09375 230.425781 564.332031 Z M 207.421875 535.300781 L 207.421875 506.050781 L 226.921875 506.050781 L 226.921875 535.300781 Z M 207.421875 496.300781 L 207.421875 494.34375 C 207.421875 486.472656 210.203125 479.757812 215.769531 474.191406 C 220.460938 469.5 226.105469 466.777344 232.703125 466.027344 L 234.90625 485.402344 C 232.820312 485.640625 231.039062 486.5 229.558594 487.980469 C 227.800781 489.738281 226.921875 491.859375 226.921875 494.34375 L 226.921875 496.300781 Z M 235.921875 465.84375 L 265.171875 465.84375 L 265.171875 485.34375 L 235.921875 485.34375 Z M 235.921875 465.84375 " fill-opacity="1" fill-rule="nonzero"/></g></g><g fill="#52639b" fill-opacity="1"><g transform="translate(259.790472, 541.294985)"><g><path d="M 12.71875 -3.03125 C 13.363281 -3.03125 13.921875 -3.078125 14.390625 -3.171875 C 14.828125 -3.253906 15.191406 -3.515625 15.484375 -3.953125 C 15.773438 -4.367188 15.984375 -5.003906 16.109375 -5.859375 C 16.191406 -6.703125 16.191406 -7.875 16.109375 -9.375 L 12.1875 -9.375 C 11.25 -9.375 10.425781 -9.390625 9.71875 -9.421875 C 9.019531 -9.421875 8.375 -9.460938 7.78125 -9.546875 C 7.164062 -9.609375 6.609375 -9.710938 6.109375 -9.859375 C 5.585938 -9.972656 5.03125 -10.148438 4.4375 -10.390625 C 3 -10.910156 1.988281 -11.800781 1.40625 -13.0625 C 0.789062 -14.320312 0.484375 -16.128906 0.484375 -18.484375 C 0.484375 -19.035156 0.46875 -19.722656 0.4375 -20.546875 C 0.40625 -21.367188 0.460938 -22.234375 0.609375 -23.140625 C 0.734375 -24.054688 0.984375 -24.984375 1.359375 -25.921875 C 1.742188 -26.828125 2.347656 -27.675781 3.171875 -28.46875 C 4.109375 -29.375 5.335938 -30.125 6.859375 -30.71875 C 8.390625 -31.269531 10.472656 -31.546875 13.109375 -31.546875 C 14.515625 -31.546875 15.765625 -31.414062 16.859375 -31.15625 C 17.910156 -30.863281 18.847656 -30.484375 19.671875 -30.015625 C 20.492188 -29.515625 21.195312 -28.957031 21.78125 -28.34375 C 22.332031 -27.695312 22.800781 -27.003906 23.1875 -26.265625 C 23.800781 -25.097656 24.210938 -23.878906 24.421875 -22.609375 C 24.597656 -21.347656 24.6875 -20.191406 24.6875 -19.140625 C 24.65625 -17.910156 24.535156 -16.707031 24.328125 -15.53125 L 15.65625 -15.53125 L 15.65625 -19.40625 C 15.65625 -20.570312 15.523438 -21.476562 15.265625 -22.125 C 14.972656 -22.769531 14.3125 -23.09375 13.28125 -23.09375 C 13.050781 -23.09375 12.804688 -23.082031 12.546875 -23.0625 C 12.273438 -23 11.976562 -22.9375 11.65625 -22.875 C 10.925781 -22.695312 10.414062 -22.390625 10.125 -21.953125 C 9.800781 -21.515625 9.609375 -20.988281 9.546875 -20.375 C 9.460938 -19.757812 9.445312 -19.097656 9.5 -18.390625 C 9.5625 -17.660156 9.59375 -16.957031 9.59375 -16.28125 C 9.59375 -15.394531 9.84375 -14.71875 10.34375 -14.25 C 10.8125 -13.757812 11.46875 -13.515625 12.3125 -13.515625 C 12.988281 -13.515625 13.632812 -13.523438 14.25 -13.546875 C 14.84375 -13.546875 15.429688 -13.546875 16.015625 -13.546875 C 17.335938 -13.546875 18.539062 -13.488281 19.625 -13.375 C 20.707031 -13.226562 21.644531 -12.9375 22.4375 -12.5 C 23.226562 -12.03125 23.84375 -11.335938 24.28125 -10.421875 C 24.695312 -9.515625 24.90625 -8.269531 24.90625 -6.6875 C 24.90625 -5.457031 24.6875 -4.414062 24.25 -3.5625 C 23.78125 -2.707031 23.175781 -2.003906 22.4375 -1.453125 C 21.675781 -0.867188 20.828125 -0.414062 19.890625 -0.09375 C 18.953125 0.226562 18.015625 0.460938 17.078125 0.609375 C 16.109375 0.765625 15.179688 0.851562 14.296875 0.875 C 13.390625 0.9375 12.628906 0.96875 12.015625 0.96875 C 10.515625 0.96875 9.222656 0.835938 8.140625 0.578125 C 7.023438 0.304688 6.070312 -0.03125 5.28125 -0.4375 C 4.488281 -0.851562 3.84375 -1.335938 3.34375 -1.890625 C 2.8125 -2.421875 2.398438 -2.960938 2.109375 -3.515625 C 1.378906 -4.835938 1.054688 -6.335938 1.140625 -8.015625 L 10.078125 -7.296875 C 10.078125 -6.628906 10.101562 -6.03125 10.15625 -5.5 C 10.1875 -4.96875 10.289062 -4.53125 10.46875 -4.1875 C 10.644531 -3.800781 10.910156 -3.519531 11.265625 -3.34375 C 11.585938 -3.132812 12.039062 -3.03125 12.625 -3.03125 Z M 12.71875 -3.03125 "/></g></g></g><g fill="#52639b" fill-opacity="1"><g transform="translate(285.129956, 541.294985)"><g><path d="M 0.96875 -14.078125 L 9.453125 -14.609375 L 9.203125 0 L 1.09375 0 Z M 0.703125 -21.390625 C 0.703125 -23.117188 1.039062 -24.316406 1.71875 -24.984375 C 2.363281 -25.660156 3.59375 -26 5.40625 -26 C 6.40625 -26 7.1875 -25.867188 7.75 -25.609375 C 8.300781 -25.316406 8.707031 -24.953125 8.96875 -24.515625 C 9.238281 -24.066406 9.398438 -23.582031 9.453125 -23.0625 C 9.484375 -22.5 9.5 -21.953125 9.5 -21.421875 C 9.5 -20.835938 9.472656 -20.269531 9.421875 -19.71875 C 9.328125 -19.125 9.132812 -18.609375 8.84375 -18.171875 C 8.519531 -17.703125 8.066406 -17.335938 7.484375 -17.078125 C 6.890625 -16.773438 6.066406 -16.625 5.015625 -16.625 C 4.046875 -16.625 3.285156 -16.773438 2.734375 -17.078125 C 2.140625 -17.335938 1.695312 -17.6875 1.40625 -18.125 C 1.113281 -18.5625 0.925781 -19.078125 0.84375 -19.671875 C 0.75 -20.222656 0.703125 -20.796875 0.703125 -21.390625 Z M 0.703125 -21.390625 "/></g></g></g><g fill="#52639b" fill-opacity="1"><g transform="translate(295.556095, 541.294985)"><g><path d="M 11.578125 -22.53125 C 13.390625 -22.53125 14.941406 -22.367188 16.234375 -22.046875 C 17.523438 -21.691406 18.597656 -21.132812 19.453125 -20.375 C 20.296875 -19.613281 20.925781 -18.613281 21.34375 -17.375 C 21.71875 -16.113281 21.90625 -14.578125 21.90625 -12.765625 L 21.90625 -11.21875 C 21.90625 -10.601562 21.832031 -9.972656 21.6875 -9.328125 C 21.539062 -8.648438 21.289062 -7.988281 20.9375 -7.34375 C 20.59375 -6.675781 20.066406 -6.078125 19.359375 -5.546875 C 18.628906 -5.015625 17.691406 -4.585938 16.546875 -4.265625 C 15.398438 -3.941406 13.976562 -3.78125 12.28125 -3.78125 L 12.1875 -2.859375 C 14.351562 -2.828125 16.113281 -2.664062 17.46875 -2.375 C 18.8125 -2.082031 19.867188 -1.703125 20.640625 -1.234375 C 21.367188 -0.734375 21.878906 -0.160156 22.171875 0.484375 C 22.441406 1.160156 22.578125 1.863281 22.578125 2.59375 C 22.578125 3.445312 22.28125 4.238281 21.6875 4.96875 C 21.070312 5.707031 20.238281 6.351562 19.1875 6.90625 C 18.125 7.46875 16.890625 7.894531 15.484375 8.1875 C 14.078125 8.507812 12.550781 8.671875 10.90625 8.671875 C 9.59375 8.671875 8.289062 8.523438 7 8.234375 C 5.675781 7.960938 4.5 7.566406 3.46875 7.046875 C 2.445312 6.546875 1.613281 5.941406 0.96875 5.234375 C 0.320312 4.535156 0 3.742188 0 2.859375 C 0 1.804688 0.304688 0.925781 0.921875 0.21875 C 1.535156 -0.488281 2.3125 -1.0625 3.25 -1.5 C 4.1875 -1.9375 5.21875 -2.257812 6.34375 -2.46875 C 7.425781 -2.664062 8.460938 -2.796875 9.453125 -2.859375 L 9.328125 -3.734375 C 7.804688 -3.734375 6.53125 -3.882812 5.5 -4.1875 C 4.46875 -4.445312 3.628906 -4.796875 2.984375 -5.234375 C 2.316406 -5.671875 1.820312 -6.171875 1.5 -6.734375 C 1.175781 -7.285156 0.941406 -7.859375 0.796875 -8.453125 C 0.648438 -9.035156 0.578125 -9.601562 0.578125 -10.15625 L 0.578125 -11.53125 C 0.578125 -13.613281 0.722656 -15.328125 1.015625 -16.671875 C 1.304688 -17.992188 1.789062 -19.066406 2.46875 -19.890625 C 3.113281 -20.679688 3.992188 -21.265625 5.109375 -21.640625 C 6.191406 -21.992188 7.539062 -22.242188 9.15625 -22.390625 C 8.832031 -23.097656 8.566406 -23.863281 8.359375 -24.6875 C 8.128906 -25.507812 8.015625 -26.34375 8.015625 -27.1875 C 8.015625 -27.800781 8.273438 -28.332031 8.796875 -28.78125 C 9.296875 -29.1875 9.941406 -29.535156 10.734375 -29.828125 C 11.523438 -30.117188 12.40625 -30.351562 13.375 -30.53125 C 14.34375 -30.707031 15.28125 -30.84375 16.1875 -30.9375 C 17.070312 -31.019531 17.894531 -31.09375 18.65625 -31.15625 C 19.382812 -31.1875 19.910156 -31.203125 20.234375 -31.203125 C 20.210938 -31.171875 20.1875 -30.921875 20.15625 -30.453125 C 20.125 -29.984375 20.09375 -29.425781 20.0625 -28.78125 C 20 -28.101562 19.957031 -27.410156 19.9375 -26.703125 C 19.90625 -25.972656 19.875 -25.316406 19.84375 -24.734375 L 14.34375 -24.28125 C 13.40625 -24.257812 12.703125 -24.1875 12.234375 -24.0625 C 11.765625 -23.945312 11.457031 -23.816406 11.3125 -23.671875 C 11.164062 -23.492188 11.132812 -23.316406 11.21875 -23.140625 C 11.28125 -22.941406 11.398438 -22.738281 11.578125 -22.53125 Z M 12.015625 -16.5 L 11.703125 -16.5 C 11.585938 -16.5 11.457031 -16.484375 11.3125 -16.453125 C 10.601562 -16.398438 10.070312 -16.285156 9.71875 -16.109375 C 9.34375 -15.929688 9.066406 -15.707031 8.890625 -15.4375 C 8.710938 -15.144531 8.625 -14.820312 8.625 -14.46875 C 8.59375 -14.09375 8.578125 -13.65625 8.578125 -13.15625 C 8.578125 -12.25 8.59375 -11.5 8.625 -10.90625 C 8.65625 -10.320312 8.757812 -9.867188 8.9375 -9.546875 C 9.082031 -9.191406 9.34375 -8.957031 9.71875 -8.84375 C 10.070312 -8.695312 10.601562 -8.625 11.3125 -8.625 C 12.039062 -8.625 12.597656 -8.695312 12.984375 -8.84375 C 13.359375 -8.957031 13.632812 -9.191406 13.8125 -9.546875 C 13.988281 -9.867188 14.09375 -10.320312 14.125 -10.90625 C 14.125 -11.5 14.125 -12.25 14.125 -13.15625 C 14.125 -13.59375 14.140625 -14.019531 14.171875 -14.4375 C 14.171875 -14.84375 14.109375 -15.207031 13.984375 -15.53125 C 13.867188 -15.820312 13.664062 -16.054688 13.375 -16.234375 C 13.082031 -16.410156 12.628906 -16.5 12.015625 -16.5 Z M 16.984375 2.0625 C 16.984375 1.71875 16.441406 1.410156 15.359375 1.140625 C 14.273438 0.878906 12.941406 0.75 11.359375 0.75 C 10.585938 0.75 9.867188 0.78125 9.203125 0.84375 C 8.523438 0.925781 7.9375 1.023438 7.4375 1.140625 C 6.90625 1.253906 6.492188 1.390625 6.203125 1.546875 C 5.878906 1.710938 5.71875 1.882812 5.71875 2.0625 C 5.71875 2.238281 5.878906 2.398438 6.203125 2.546875 C 6.492188 2.722656 6.90625 2.867188 7.4375 2.984375 C 7.9375 3.109375 8.523438 3.195312 9.203125 3.25 C 9.867188 3.3125 10.585938 3.34375 11.359375 3.34375 C 12.941406 3.34375 14.273438 3.222656 15.359375 2.984375 C 16.441406 2.753906 16.984375 2.445312 16.984375 2.0625 Z M 16.984375 2.0625 "/></g></g></g><g fill="#52639b" fill-opacity="1"><g transform="translate(317.772154, 541.294985)"><g><path d="M 9.375 -22 L 9.0625 -15.75 C 9.351562 -16.570312 9.734375 -17.363281 10.203125 -18.125 C 10.648438 -18.882812 11.164062 -19.578125 11.75 -20.203125 C 12.300781 -20.785156 12.914062 -21.253906 13.59375 -21.609375 C 14.238281 -21.953125 14.914062 -22.125 15.625 -22.125 C 17.726562 -22.125 19.328125 -21.757812 20.421875 -21.03125 C 21.472656 -20.269531 22.203125 -19.023438 22.609375 -17.296875 C 22.992188 -15.566406 23.15625 -13.289062 23.09375 -10.46875 C 23.007812 -7.625 22.878906 -4.132812 22.703125 0 L 13.953125 0 C 14.035156 -0.613281 14.132812 -1.421875 14.25 -2.421875 C 14.34375 -3.390625 14.429688 -4.429688 14.515625 -5.546875 C 14.578125 -6.660156 14.625 -7.789062 14.65625 -8.9375 C 14.6875 -10.070312 14.671875 -11.113281 14.609375 -12.0625 C 14.515625 -12.96875 14.367188 -13.710938 14.171875 -14.296875 C 13.960938 -14.890625 13.65625 -15.1875 13.25 -15.1875 C 12.3125 -15.1875 11.457031 -14.945312 10.6875 -14.46875 C 9.894531 -13.976562 9.296875 -13.394531 8.890625 -12.71875 L 8.234375 0 L 1.015625 0 C 1.015625 -2.488281 1.015625 -5.007812 1.015625 -7.5625 C 0.984375 -10.09375 0.96875 -12.382812 0.96875 -14.4375 C 0.9375 -16.863281 0.90625 -19.207031 0.875 -21.46875 Z M 9.375 -22 "/></g></g></g><g fill="#52639b" fill-opacity="1"><g transform="translate(341.703889, 541.294985)"><g/></g></g><g fill="#52639b" fill-opacity="1"><g transform="translate(357.101147, 541.294985)"><g><path d="M 10.25 -30.796875 L 9.109375 0 L 1.015625 0 L 0.875 -30.359375 Z M 10.25 -30.796875 "/></g></g></g><g fill="#52639b" fill-opacity="1"><g transform="translate(368.231166, 541.294985)"><g><path d="M 9.375 -22 L 9.0625 -15.75 C 9.351562 -16.570312 9.734375 -17.363281 10.203125 -18.125 C 10.648438 -18.882812 11.164062 -19.578125 11.75 -20.203125 C 12.300781 -20.785156 12.914062 -21.253906 13.59375 -21.609375 C 14.238281 -21.953125 14.914062 -22.125 15.625 -22.125 C 17.726562 -22.125 19.328125 -21.757812 20.421875 -21.03125 C 21.472656 -20.269531 22.203125 -19.023438 22.609375 -17.296875 C 22.992188 -15.566406 23.15625 -13.289062 23.09375 -10.46875 C 23.007812 -7.625 22.878906 -4.132812 22.703125 0 L 13.953125 0 C 14.035156 -0.613281 14.132812 -1.421875 14.25 -2.421875 C 14.34375 -3.390625 14.429688 -4.429688 14.515625 -5.546875 C 14.578125 -6.660156 14.625 -7.789062 14.65625 -8.9375 C 14.6875 -10.070312 14.671875 -11.113281 14.609375 -12.0625 C 14.515625 -12.96875 14.367188 -13.710938 14.171875 -14.296875 C 13.960938 -14.890625 13.65625 -15.1875 13.25 -15.1875 C 12.3125 -15.1875 11.457031 -14.945312 10.6875 -14.46875 C 9.894531 -13.976562 9.296875 -13.394531 8.890625 -12.71875 L 8.234375 0 L 1.015625 0 C 1.015625 -2.488281 1.015625 -5.007812 1.015625 -7.5625 C 0.984375 -10.09375 0.96875 -12.382812 0.96875 -14.4375 C 0.9375 -16.863281 0.90625 -19.207031 0.875 -21.46875 Z M 9.375 -22 "/></g></g></g><g fill="#52639b" fill-opacity="1"><g transform="translate(392.162901, 541.294985)"><g/></g></g><g fill="#52639b" fill-opacity="1"><g transform="translate(407.560159, 541.294985)"><g><path d="M 0.4375 -21.203125 L 4.578125 -21.296875 L 4.40625 -29.78125 L 13.03125 -30.84375 L 12.578125 -21.640625 L 18.4375 -22 L 18.078125 -13.546875 L 12.671875 -13.515625 L 12.671875 0 L 4.3125 0 L 4.703125 -13.328125 L 0.65625 -13.0625 Z M 0.4375 -21.203125 "/></g></g></g><g fill="#52639b" fill-opacity="1"><g transform="translate(425.552891, 541.294985)"><g><path d="M 0.875 -10.515625 C 0.875 -11.890625 0.9375 -13.269531 1.0625 -14.65625 C 1.175781 -16 1.554688 -17.242188 2.203125 -18.390625 C 2.847656 -19.503906 3.875 -20.425781 5.28125 -21.15625 C 6.65625 -21.894531 8.617188 -22.320312 11.171875 -22.4375 L 12.09375 -22.4375 C 14.53125 -22.4375 16.410156 -22.070312 17.734375 -21.34375 C 19.054688 -20.582031 20.039062 -19.628906 20.6875 -18.484375 C 21.300781 -17.304688 21.664062 -16.03125 21.78125 -14.65625 C 21.894531 -13.25 21.953125 -11.898438 21.953125 -10.609375 C 21.953125 -9.171875 21.863281 -7.773438 21.6875 -6.421875 C 21.507812 -5.046875 21.070312 -3.816406 20.375 -2.734375 C 19.664062 -1.640625 18.59375 -0.769531 17.15625 -0.125 C 15.71875 0.539062 13.738281 0.875 11.21875 0.875 C 8.90625 0.875 7.070312 0.539062 5.71875 -0.125 C 4.34375 -0.800781 3.300781 -1.679688 2.59375 -2.765625 C 1.863281 -3.828125 1.394531 -5.046875 1.1875 -6.421875 C 0.976562 -7.773438 0.875 -9.140625 0.875 -10.515625 Z M 11.3125 -15.140625 C 10.601562 -15.015625 10.070312 -14.867188 9.71875 -14.703125 C 9.34375 -14.492188 9.082031 -14.195312 8.9375 -13.8125 C 8.757812 -13.4375 8.65625 -12.953125 8.625 -12.359375 C 8.59375 -11.773438 8.578125 -11.015625 8.578125 -10.078125 C 8.578125 -9.171875 8.59375 -8.378906 8.625 -7.703125 C 8.65625 -7.023438 8.757812 -6.46875 8.9375 -6.03125 C 9.082031 -5.5625 9.34375 -5.222656 9.71875 -5.015625 C 10.070312 -4.773438 10.601562 -4.65625 11.3125 -4.65625 C 12.039062 -4.65625 12.597656 -4.773438 12.984375 -5.015625 C 13.359375 -5.222656 13.632812 -5.5625 13.8125 -6.03125 C 13.988281 -6.46875 14.09375 -7.023438 14.125 -7.703125 C 14.125 -8.378906 14.125 -9.171875 14.125 -10.078125 C 14.125 -10.898438 14.140625 -11.632812 14.171875 -12.28125 C 14.171875 -12.925781 14.125 -13.46875 14.03125 -13.90625 C 13.945312 -14.34375 13.773438 -14.679688 13.515625 -14.921875 C 13.242188 -15.148438 12.84375 -15.265625 12.3125 -15.265625 C 12.050781 -15.265625 11.71875 -15.222656 11.3125 -15.140625 Z M 11.3125 -15.140625 "/></g></g></g><g fill="#52639b" fill-opacity="1"><g transform="translate(448.384826, 541.294985)"><g/></g></g><g fill="#52639b" fill-opacity="1"><g transform="translate(463.782083, 541.294985)"><g><path d="M -0.875 -30.359375 L 10.078125 -30.796875 L 13.546875 -6.859375 L 15.75 -30.265625 L 26.53125 -30.796875 L 18.96875 0 L 8.3125 0 Z M -0.875 -30.359375 "/></g></g></g><g fill="#52639b" fill-opacity="1"><g transform="translate(488.549614, 541.294985)"><g><path d="M 0.96875 -14.078125 L 9.453125 -14.609375 L 9.203125 0 L 1.09375 0 Z M 0.703125 -21.390625 C 0.703125 -23.117188 1.039062 -24.316406 1.71875 -24.984375 C 2.363281 -25.660156 3.59375 -26 5.40625 -26 C 6.40625 -26 7.1875 -25.867188 7.75 -25.609375 C 8.300781 -25.316406 8.707031 -24.953125 8.96875 -24.515625 C 9.238281 -24.066406 9.398438 -23.582031 9.453125 -23.0625 C 9.484375 -22.5 9.5 -21.953125 9.5 -21.421875 C 9.5 -20.835938 9.472656 -20.269531 9.421875 -19.71875 C 9.328125 -19.125 9.132812 -18.609375 8.84375 -18.171875 C 8.519531 -17.703125 8.066406 -17.335938 7.484375 -17.078125 C 6.890625 -16.773438 6.066406 -16.625 5.015625 -16.625 C 4.046875 -16.625 3.285156 -16.773438 2.734375 -17.078125 C 2.140625 -17.335938 1.695312 -17.6875 1.40625 -18.125 C 1.113281 -18.5625 0.925781 -19.078125 0.84375 -19.671875 C 0.75 -20.222656 0.703125 -20.796875 0.703125 -21.390625 Z M 0.703125 -21.390625 "/></g></g></g><g fill="#52639b" fill-opacity="1"><g transform="translate(498.975753, 541.294985)"><g><path d="M 21.953125 -9.28125 C 21.921875 -7.957031 21.789062 -6.695312 21.5625 -5.5 C 21.289062 -4.269531 20.789062 -3.1875 20.0625 -2.25 C 19.300781 -1.3125 18.234375 -0.5625 16.859375 0 C 15.441406 0.582031 13.5625 0.875 11.21875 0.875 C 8.90625 0.875 7.070312 0.539062 5.71875 -0.125 C 4.34375 -0.800781 3.300781 -1.679688 2.59375 -2.765625 C 1.863281 -3.828125 1.394531 -5.046875 1.1875 -6.421875 C 0.976562 -7.773438 0.875 -9.140625 0.875 -10.515625 C 0.875 -11.890625 0.9375 -13.269531 1.0625 -14.65625 C 1.175781 -16 1.554688 -17.242188 2.203125 -18.390625 C 2.847656 -19.503906 3.875 -20.425781 5.28125 -21.15625 C 6.65625 -21.894531 8.617188 -22.320312 11.171875 -22.4375 L 11.921875 -22.4375 C 14.179688 -22.4375 15.972656 -22.054688 17.296875 -21.296875 C 18.585938 -20.503906 19.582031 -19.519531 20.28125 -18.34375 C 20.957031 -17.175781 21.398438 -15.914062 21.609375 -14.5625 C 21.804688 -13.1875 21.921875 -11.894531 21.953125 -10.6875 L 8.578125 -9.5 C 8.578125 -8.507812 8.59375 -7.660156 8.625 -6.953125 C 8.65625 -6.222656 8.757812 -5.617188 8.9375 -5.140625 C 9.082031 -4.671875 9.34375 -4.335938 9.71875 -4.140625 C 10.070312 -3.898438 10.601562 -3.78125 11.3125 -3.78125 C 12.007812 -3.78125 12.550781 -3.882812 12.9375 -4.09375 C 13.320312 -4.269531 13.597656 -4.5625 13.765625 -4.96875 C 13.941406 -5.351562 14.046875 -5.835938 14.078125 -6.421875 C 14.109375 -7.003906 14.125 -7.691406 14.125 -8.484375 Z M 14.03125 -12.453125 L 13.984375 -12.453125 L 13.640625 -15.703125 C 13.554688 -16.148438 13.320312 -16.535156 12.9375 -16.859375 C 12.550781 -17.179688 12.097656 -17.34375 11.578125 -17.34375 C 11.253906 -17.34375 10.914062 -17.296875 10.5625 -17.203125 C 10.207031 -17.117188 9.898438 -16.988281 9.640625 -16.8125 C 9.347656 -16.632812 9.113281 -16.410156 8.9375 -16.140625 C 8.726562 -15.878906 8.625 -15.5625 8.625 -15.1875 L 8.578125 -11.921875 L 8.578125 -11.875 L 13.984375 -12.453125 L 13.984375 -12.40625 Z M 14.03125 -12.453125 "/></g></g></g><g fill="#52639b" fill-opacity="1"><g transform="translate(520.927787, 541.294985)"><g><path d="M -0.921875 -21.25 L 7.65625 -22 L 10.5625 -6.640625 L 12.0625 -21.25 L 19.796875 -22 L 23.546875 -6.640625 L 24.25 -21.25 L 32.640625 -22 L 28.109375 0 L 19.84375 0 L 16.671875 -8.96875 L 14.78125 0 L 6.515625 0 Z M -0.921875 -21.25 "/></g></g></g><g fill="#52639b" fill-opacity="1"><g transform="translate(552.954076, 541.294985)"><g/></g></g><g fill="#52639b" fill-opacity="1"><g transform="translate(568.351322, 541.294985)"><g><path d="M -0.65625 -29.921875 L 8.625 -30.796875 L 12.796875 -18.78125 L 13.421875 -18.828125 L 16.140625 -30.359375 L 26.75 -30.796875 L 18.34375 -12.40625 L 18.296875 0 L 7.296875 0 L 7.65625 -11.921875 Z M -0.65625 -29.921875 "/></g></g></g><g fill="#52639b" fill-opacity="1"><g transform="translate(589.819247, 541.294985)"><g><path d="M 0.875 -10.515625 C 0.875 -11.890625 0.9375 -13.269531 1.0625 -14.65625 C 1.175781 -16 1.554688 -17.242188 2.203125 -18.390625 C 2.847656 -19.503906 3.875 -20.425781 5.28125 -21.15625 C 6.65625 -21.894531 8.617188 -22.320312 11.171875 -22.4375 L 12.09375 -22.4375 C 14.53125 -22.4375 16.410156 -22.070312 17.734375 -21.34375 C 19.054688 -20.582031 20.039062 -19.628906 20.6875 -18.484375 C 21.300781 -17.304688 21.664062 -16.03125 21.78125 -14.65625 C 21.894531 -13.25 21.953125 -11.898438 21.953125 -10.609375 C 21.953125 -9.171875 21.863281 -7.773438 21.6875 -6.421875 C 21.507812 -5.046875 21.070312 -3.816406 20.375 -2.734375 C 19.664062 -1.640625 18.59375 -0.769531 17.15625 -0.125 C 15.71875 0.539062 13.738281 0.875 11.21875 0.875 C 8.90625 0.875 7.070312 0.539062 5.71875 -0.125 C 4.34375 -0.800781 3.300781 -1.679688 2.59375 -2.765625 C 1.863281 -3.828125 1.394531 -5.046875 1.1875 -6.421875 C 0.976562 -7.773438 0.875 -9.140625 0.875 -10.515625 Z M 11.3125 -15.140625 C 10.601562 -15.015625 10.070312 -14.867188 9.71875 -14.703125 C 9.34375 -14.492188 9.082031 -14.195312 8.9375 -13.8125 C 8.757812 -13.4375 8.65625 -12.953125 8.625 -12.359375 C 8.59375 -11.773438 8.578125 -11.015625 8.578125 -10.078125 C 8.578125 -9.171875 8.59375 -8.378906 8.625 -7.703125 C 8.65625 -7.023438 8.757812 -6.46875 8.9375 -6.03125 C 9.082031 -5.5625 9.34375 -5.222656 9.71875 -5.015625 C 10.070312 -4.773438 10.601562 -4.65625 11.3125 -4.65625 C 12.039062 -4.65625 12.597656 -4.773438 12.984375 -5.015625 C 13.359375 -5.222656 13.632812 -5.5625 13.8125 -6.03125 C 13.988281 -6.46875 14.09375 -7.023438 14.125 -7.703125 C 14.125 -8.378906 14.125 -9.171875 14.125 -10.078125 C 14.125 -10.898438 14.140625 -11.632812 14.171875 -12.28125 C 14.171875 -12.925781 14.125 -13.46875 14.03125 -13.90625 C 13.945312 -14.34375 13.773438 -14.679688 13.515625 -14.921875 C 13.242188 -15.148438 12.84375 -15.265625 12.3125 -15.265625 C 12.050781 -15.265625 11.71875 -15.222656 11.3125 -15.140625 Z M 11.3125 -15.140625 "/></g></g></g><g fill="#52639b" fill-opacity="1"><g transform="translate(612.65117, 541.294985)"><g><path d="M 1.359375 -21.46875 L 9.234375 -22 L 9.015625 -10.078125 C 9.015625 -9.222656 9.03125 -8.457031 9.0625 -7.78125 C 9.0625 -7.113281 9.132812 -6.546875 9.28125 -6.078125 C 9.425781 -5.609375 9.660156 -5.253906 9.984375 -5.015625 C 10.273438 -4.753906 10.71875 -4.625 11.3125 -4.625 C 11.363281 -4.625 11.4375 -4.632812 11.53125 -4.65625 C 11.582031 -4.65625 11.65625 -4.65625 11.75 -4.65625 C 12.476562 -4.71875 13.035156 -4.867188 13.421875 -5.109375 C 13.796875 -5.335938 14.070312 -5.671875 14.25 -6.109375 C 14.425781 -6.523438 14.53125 -7.070312 14.5625 -7.75 C 14.5625 -8.394531 14.5625 -9.171875 14.5625 -10.078125 L 14.515625 -21.46875 L 22.359375 -22 L 22.390625 -10.609375 C 22.390625 -9.171875 22.300781 -7.773438 22.125 -6.421875 C 21.957031 -5.046875 21.519531 -3.816406 20.8125 -2.734375 C 20.101562 -1.640625 19.03125 -0.769531 17.59375 -0.125 C 16.15625 0.539062 14.175781 0.875 11.65625 0.875 C 9.34375 0.875 7.507812 0.539062 6.15625 -0.125 C 4.78125 -0.800781 3.738281 -1.679688 3.03125 -2.765625 C 2.300781 -3.828125 1.832031 -5.046875 1.625 -6.421875 C 1.414062 -7.773438 1.3125 -9.140625 1.3125 -10.515625 Z M 1.359375 -21.46875 "/></g></g></g><g fill="#52639b" fill-opacity="1"><g transform="translate(636.362961, 541.294985)"><g><path d="M 9.234375 -21.5625 L 8.796875 -16.140625 C 9.390625 -18.140625 10.242188 -19.625 11.359375 -20.59375 C 12.472656 -21.53125 13.6875 -22 15 -22 C 16 -22 16.820312 -21.796875 17.46875 -21.390625 C 18.113281 -20.941406 18.628906 -20.304688 19.015625 -19.484375 C 19.390625 -18.671875 19.648438 -17.660156 19.796875 -16.453125 C 19.941406 -15.253906 20 -13.890625 19.96875 -12.359375 L 11.578125 -11.484375 C 11.515625 -12.484375 11.441406 -13.273438 11.359375 -13.859375 C 11.265625 -14.441406 10.910156 -14.734375 10.296875 -14.734375 C 9.910156 -14.734375 9.367188 -14.601562 8.671875 -14.34375 L 8.671875 0 L 1.015625 0 C 1.015625 -2.613281 1.015625 -5.164062 1.015625 -7.65625 C 0.984375 -10.144531 0.96875 -12.390625 0.96875 -14.390625 C 0.9375 -16.703125 0.90625 -18.914062 0.875 -21.03125 Z M 9.234375 -21.5625 "/></g></g></g><g fill="#52639b" fill-opacity="1"><g transform="translate(656.555374, 541.294985)"><g/></g></g><g fill="#52639b" fill-opacity="1"><g transform="translate(671.95262, 541.294985)"><g><path d="M 0.875 0 L 0.875 -30.359375 L 12.9375 -30.84375 C 13.113281 -30.84375 13.289062 -30.859375 13.46875 -30.890625 C 13.613281 -30.890625 13.773438 -30.890625 13.953125 -30.890625 C 15.796875 -30.890625 17.320312 -30.582031 18.53125 -29.96875 C 19.726562 -29.351562 20.679688 -28.570312 21.390625 -27.625 C 22.085938 -26.75 22.597656 -25.8125 22.921875 -24.8125 C 23.242188 -23.789062 23.460938 -22.835938 23.578125 -21.953125 C 23.703125 -20.929688 23.734375 -19.921875 23.671875 -18.921875 C 23.671875 -15.285156 22.773438 -12.425781 20.984375 -10.34375 C 19.171875 -8.257812 16.429688 -7.21875 12.765625 -7.21875 C 12.296875 -7.21875 11.867188 -7.234375 11.484375 -7.265625 C 11.078125 -7.285156 10.722656 -7.328125 10.421875 -7.390625 C 10.078125 -7.421875 9.769531 -7.46875 9.5 -7.53125 L 9.640625 0 Z M 9.015625 -22.21875 L 9.203125 -14.4375 L 12.5 -14.515625 C 13.019531 -14.546875 13.488281 -14.648438 13.90625 -14.828125 C 14.257812 -15.003906 14.582031 -15.269531 14.875 -15.625 C 15.132812 -15.96875 15.238281 -16.476562 15.1875 -17.15625 L 15.265625 -20.328125 C 15.234375 -21.148438 15.03125 -21.722656 14.65625 -22.046875 C 14.269531 -22.335938 13.695312 -22.484375 12.9375 -22.484375 Z M 9.015625 -22.21875 "/></g></g></g><g fill="#52639b" fill-opacity="1"><g transform="translate(695.224409, 541.294985)"><g><path d="M 21.953125 -9.28125 C 21.921875 -7.957031 21.789062 -6.695312 21.5625 -5.5 C 21.289062 -4.269531 20.789062 -3.1875 20.0625 -2.25 C 19.300781 -1.3125 18.234375 -0.5625 16.859375 0 C 15.441406 0.582031 13.5625 0.875 11.21875 0.875 C 8.90625 0.875 7.070312 0.539062 5.71875 -0.125 C 4.34375 -0.800781 3.300781 -1.679688 2.59375 -2.765625 C 1.863281 -3.828125 1.394531 -5.046875 1.1875 -6.421875 C 0.976562 -7.773438 0.875 -9.140625 0.875 -10.515625 C 0.875 -11.890625 0.9375 -13.269531 1.0625 -14.65625 C 1.175781 -16 1.554688 -17.242188 2.203125 -18.390625 C 2.847656 -19.503906 3.875 -20.425781 5.28125 -21.15625 C 6.65625 -21.894531 8.617188 -22.320312 11.171875 -22.4375 L 11.921875 -22.4375 C 14.179688 -22.4375 15.972656 -22.054688 17.296875 -21.296875 C 18.585938 -20.503906 19.582031 -19.519531 20.28125 -18.34375 C 20.957031 -17.175781 21.398438 -15.914062 21.609375 -14.5625 C 21.804688 -13.1875 21.921875 -11.894531 21.953125 -10.6875 L 8.578125 -9.5 C 8.578125 -8.507812 8.59375 -7.660156 8.625 -6.953125 C 8.65625 -6.222656 8.757812 -5.617188 8.9375 -5.140625 C 9.082031 -4.671875 9.34375 -4.335938 9.71875 -4.140625 C 10.070312 -3.898438 10.601562 -3.78125 11.3125 -3.78125 C 12.007812 -3.78125 12.550781 -3.882812 12.9375 -4.09375 C 13.320312 -4.269531 13.597656 -4.5625 13.765625 -4.96875 C 13.941406 -5.351562 14.046875 -5.835938 14.078125 -6.421875 C 14.109375 -7.003906 14.125 -7.691406 14.125 -8.484375 Z M 14.03125 -12.453125 L 13.984375 -12.453125 L 13.640625 -15.703125 C 13.554688 -16.148438 13.320312 -16.535156 12.9375 -16.859375 C 12.550781 -17.179688 12.097656 -17.34375 11.578125 -17.34375 C 11.253906 -17.34375 10.914062 -17.296875 10.5625 -17.203125 C 10.207031 -17.117188 9.898438 -16.988281 9.640625 -16.8125 C 9.347656 -16.632812 9.113281 -16.410156 8.9375 -16.140625 C 8.726562 -15.878906 8.625 -15.5625 8.625 -15.1875 L 8.578125 -11.921875 L 8.578125 -11.875 L 13.984375 -12.453125 L 13.984375 -12.40625 Z M 14.03125 -12.453125 "/></g></g></g><g fill="#52639b" fill-opacity="1"><g transform="translate(718.056332, 541.294985)"><g><path d="M 9.234375 -21.5625 L 8.796875 -16.140625 C 9.390625 -18.140625 10.242188 -19.625 11.359375 -20.59375 C 12.472656 -21.53125 13.6875 -22 15 -22 C 16 -22 16.820312 -21.796875 17.46875 -21.390625 C 18.113281 -20.941406 18.628906 -20.304688 19.015625 -19.484375 C 19.390625 -18.671875 19.648438 -17.660156 19.796875 -16.453125 C 19.941406 -15.253906 20 -13.890625 19.96875 -12.359375 L 11.578125 -11.484375 C 11.515625 -12.484375 11.441406 -13.273438 11.359375 -13.859375 C 11.265625 -14.441406 10.910156 -14.734375 10.296875 -14.734375 C 9.910156 -14.734375 9.367188 -14.601562 8.671875 -14.34375 L 8.671875 0 L 1.015625 0 C 1.015625 -2.613281 1.015625 -5.164062 1.015625 -7.65625 C 0.984375 -10.144531 0.96875 -12.390625 0.96875 -14.390625 C 0.9375 -16.703125 0.90625 -18.914062 0.875 -21.03125 Z M 9.234375 -21.5625 "/></g></g></g><g fill="#52639b" fill-opacity="1"><g transform="translate(738.248745, 541.294985)"><g><path d="M 13.03125 -15.1875 C 13.03125 -15.5 12.894531 -15.832031 12.625 -16.1875 C 12.363281 -16.539062 11.96875 -16.71875 11.4375 -16.71875 C 11.320312 -16.71875 11.207031 -16.703125 11.09375 -16.671875 C 10.945312 -16.640625 10.796875 -16.597656 10.640625 -16.546875 C 10.265625 -16.398438 10.003906 -16.191406 9.859375 -15.921875 C 9.679688 -15.660156 9.5625 -15.335938 9.5 -14.953125 C 9.445312 -14.546875 9.429688 -14.078125 9.453125 -13.546875 C 9.453125 -13.023438 9.453125 -12.457031 9.453125 -11.84375 C 9.453125 -11.394531 9.515625 -11.054688 9.640625 -10.828125 C 9.722656 -10.554688 9.835938 -10.347656 9.984375 -10.203125 C 10.128906 -10.054688 10.289062 -9.96875 10.46875 -9.9375 C 10.613281 -9.882812 10.75 -9.859375 10.875 -9.859375 C 10.988281 -9.859375 11.0625 -9.875 11.09375 -9.90625 L 14.125 -9.90625 C 15.269531 -9.90625 16.3125 -9.859375 17.25 -9.765625 C 18.1875 -9.679688 19.007812 -9.492188 19.71875 -9.203125 C 20.382812 -8.878906 20.910156 -8.40625 21.296875 -7.78125 C 21.648438 -7.132812 21.828125 -6.269531 21.828125 -5.1875 C 21.828125 -3.894531 21.445312 -2.867188 20.6875 -2.109375 C 19.882812 -1.347656 18.925781 -0.765625 17.8125 -0.359375 C 16.695312 0.0546875 15.523438 0.320312 14.296875 0.4375 C 13.035156 0.550781 11.921875 0.609375 10.953125 0.609375 C 9.804688 0.609375 8.796875 0.507812 7.921875 0.3125 C 7.035156 0.132812 6.269531 -0.113281 5.625 -0.4375 C 4.957031 -0.757812 4.398438 -1.128906 3.953125 -1.546875 C 3.484375 -1.921875 3.085938 -2.328125 2.765625 -2.765625 C 2.035156 -3.734375 1.597656 -4.847656 1.453125 -6.109375 L 9.859375 -5.671875 C 9.859375 -5.234375 9.859375 -4.835938 9.859375 -4.484375 C 9.828125 -4.128906 9.84375 -3.820312 9.90625 -3.5625 C 9.957031 -3.300781 10.085938 -3.109375 10.296875 -2.984375 C 10.472656 -2.835938 10.765625 -2.765625 11.171875 -2.765625 L 11.53125 -2.765625 C 12.082031 -2.828125 12.503906 -2.890625 12.796875 -2.953125 C 13.097656 -3.003906 13.320312 -3.164062 13.46875 -3.4375 C 13.582031 -3.695312 13.640625 -4.117188 13.640625 -4.703125 C 13.640625 -5.265625 13.609375 -6.054688 13.546875 -7.078125 L 11.171875 -7.078125 C 10.441406 -7.078125 9.796875 -7.09375 9.234375 -7.125 C 8.679688 -7.125 8.15625 -7.15625 7.65625 -7.21875 C 7.125 -7.25 6.597656 -7.304688 6.078125 -7.390625 C 5.515625 -7.484375 4.894531 -7.601562 4.21875 -7.75 C 3.019531 -8.007812 2.171875 -8.59375 1.671875 -9.5 C 1.140625 -10.414062 0.875 -11.675781 0.875 -13.28125 C 0.875 -13.695312 0.90625 -14.210938 0.96875 -14.828125 C 1 -15.410156 1.113281 -16.039062 1.3125 -16.71875 C 1.519531 -17.363281 1.84375 -18.023438 2.28125 -18.703125 C 2.726562 -19.347656 3.363281 -19.929688 4.1875 -20.453125 C 5 -20.984375 6.035156 -21.410156 7.296875 -21.734375 C 8.566406 -22.054688 10.109375 -22.21875 11.921875 -22.21875 C 13.296875 -22.21875 14.5 -22.070312 15.53125 -21.78125 C 16.53125 -21.457031 17.378906 -21.046875 18.078125 -20.546875 C 18.785156 -20.015625 19.359375 -19.425781 19.796875 -18.78125 C 20.210938 -18.113281 20.550781 -17.441406 20.8125 -16.765625 C 21.363281 -15.148438 21.554688 -13.332031 21.390625 -11.3125 L 13.109375 -11.3125 Z M 13.03125 -15.1875 "/></g></g></g><g fill="#52639b" fill-opacity="1"><g transform="translate(760.596766, 541.294985)"><g><path d="M 0.875 -10.515625 C 0.875 -11.890625 0.9375 -13.269531 1.0625 -14.65625 C 1.175781 -16 1.554688 -17.242188 2.203125 -18.390625 C 2.847656 -19.503906 3.875 -20.425781 5.28125 -21.15625 C 6.65625 -21.894531 8.617188 -22.320312 11.171875 -22.4375 L 12.09375 -22.4375 C 14.53125 -22.4375 16.410156 -22.070312 17.734375 -21.34375 C 19.054688 -20.582031 20.039062 -19.628906 20.6875 -18.484375 C 21.300781 -17.304688 21.664062 -16.03125 21.78125 -14.65625 C 21.894531 -13.25 21.953125 -11.898438 21.953125 -10.609375 C 21.953125 -9.171875 21.863281 -7.773438 21.6875 -6.421875 C 21.507812 -5.046875 21.070312 -3.816406 20.375 -2.734375 C 19.664062 -1.640625 18.59375 -0.769531 17.15625 -0.125 C 15.71875 0.539062 13.738281 0.875 11.21875 0.875 C 8.90625 0.875 7.070312 0.539062 5.71875 -0.125 C 4.34375 -0.800781 3.300781 -1.679688 2.59375 -2.765625 C 1.863281 -3.828125 1.394531 -5.046875 1.1875 -6.421875 C 0.976562 -7.773438 0.875 -9.140625 0.875 -10.515625 Z M 11.3125 -15.140625 C 10.601562 -15.015625 10.070312 -14.867188 9.71875 -14.703125 C 9.34375 -14.492188 9.082031 -14.195312 8.9375 -13.8125 C 8.757812 -13.4375 8.65625 -12.953125 8.625 -12.359375 C 8.59375 -11.773438 8.578125 -11.015625 8.578125 -10.078125 C 8.578125 -9.171875 8.59375 -8.378906 8.625 -7.703125 C 8.65625 -7.023438 8.757812 -6.46875 8.9375 -6.03125 C 9.082031 -5.5625 9.34375 -5.222656 9.71875 -5.015625 C 10.070312 -4.773438 10.601562 -4.65625 11.3125 -4.65625 C 12.039062 -4.65625 12.597656 -4.773438 12.984375 -5.015625 C 13.359375 -5.222656 13.632812 -5.5625 13.8125 -6.03125 C 13.988281 -6.46875 14.09375 -7.023438 14.125 -7.703125 C 14.125 -8.378906 14.125 -9.171875 14.125 -10.078125 C 14.125 -10.898438 14.140625 -11.632812 14.171875 -12.28125 C 14.171875 -12.925781 14.125 -13.46875 14.03125 -13.90625 C 13.945312 -14.34375 13.773438 -14.679688 13.515625 -14.921875 C 13.242188 -15.148438 12.84375 -15.265625 12.3125 -15.265625 C 12.050781 -15.265625 11.71875 -15.222656 11.3125 -15.140625 Z M 11.3125 -15.140625 "/></g></g></g><g fill="#52639b" fill-opacity="1"><g transform="translate(783.428689, 541.294985)"><g><path d="M 9.375 -22 L 9.0625 -15.75 C 9.351562 -16.570312 9.734375 -17.363281 10.203125 -18.125 C 10.648438 -18.882812 11.164062 -19.578125 11.75 -20.203125 C 12.300781 -20.785156 12.914062 -21.253906 13.59375 -21.609375 C 14.238281 -21.953125 14.914062 -22.125 15.625 -22.125 C 17.726562 -22.125 19.328125 -21.757812 20.421875 -21.03125 C 21.472656 -20.269531 22.203125 -19.023438 22.609375 -17.296875 C 22.992188 -15.566406 23.15625 -13.289062 23.09375 -10.46875 C 23.007812 -7.625 22.878906 -4.132812 22.703125 0 L 13.953125 0 C 14.035156 -0.613281 14.132812 -1.421875 14.25 -2.421875 C 14.34375 -3.390625 14.429688 -4.429688 14.515625 -5.546875 C 14.578125 -6.660156 14.625 -7.789062 14.65625 -8.9375 C 14.6875 -10.070312 14.671875 -11.113281 14.609375 -12.0625 C 14.515625 -12.96875 14.367188 -13.710938 14.171875 -14.296875 C 13.960938 -14.890625 13.65625 -15.1875 13.25 -15.1875 C 12.3125 -15.1875 11.457031 -14.945312 10.6875 -14.46875 C 9.894531 -13.976562 9.296875 -13.394531 8.890625 -12.71875 L 8.234375 0 L 1.015625 0 C 1.015625 -2.488281 1.015625 -5.007812 1.015625 -7.5625 C 0.984375 -10.09375 0.96875 -12.382812 0.96875 -14.4375 C 0.9375 -16.863281 0.90625 -19.207031 0.875 -21.46875 Z M 9.375 -22 "/></g></g></g><g fill="#52639b" fill-opacity="1"><g transform="translate(807.360436, 541.294985)"><g><path d="M 0.875 -5.109375 C 0.875 -5.984375 1.035156 -6.710938 1.359375 -7.296875 C 1.679688 -7.890625 2.109375 -8.363281 2.640625 -8.71875 C 3.171875 -9.0625 3.785156 -9.304688 4.484375 -9.453125 C 5.191406 -9.609375 5.941406 -9.6875 6.734375 -9.6875 C 8.140625 -9.6875 9.546875 -9.523438 10.953125 -9.203125 C 12.335938 -8.847656 13.5 -8.476562 14.4375 -8.09375 L 14.4375 -13.765625 L 1.765625 -12.671875 L 1.765625 -22 C 4.460938 -21.96875 7.015625 -21.925781 9.421875 -21.875 C 11.796875 -21.8125 13.890625 -21.734375 15.703125 -21.640625 C 17.816406 -21.554688 19.769531 -21.472656 21.5625 -21.390625 L 21.34375 0 L 14.609375 0 L 14.46875 -3.03125 C 13.445312 -2.09375 12.257812 -1.363281 10.90625 -0.84375 C 9.53125 -0.28125 8.179688 0 6.859375 0 C 5.867188 0 4.988281 -0.144531 4.21875 -0.4375 C 3.457031 -0.707031 2.84375 -1.078125 2.375 -1.546875 C 1.875 -2.015625 1.507812 -2.554688 1.28125 -3.171875 C 1.007812 -3.785156 0.875 -4.429688 0.875 -5.109375 Z M 6.5625 -4.890625 C 6.5625 -4.359375 6.765625 -3.972656 7.171875 -3.734375 C 7.578125 -3.472656 8.117188 -3.34375 8.796875 -3.34375 C 9.148438 -3.34375 9.503906 -3.429688 9.859375 -3.609375 C 10.179688 -3.753906 10.488281 -3.929688 10.78125 -4.140625 C 11.070312 -4.335938 11.363281 -4.585938 11.65625 -4.890625 C 11.363281 -5.179688 11.070312 -5.441406 10.78125 -5.671875 C 10.488281 -5.878906 10.179688 -6.070312 9.859375 -6.25 C 9.503906 -6.394531 9.148438 -6.46875 8.796875 -6.46875 C 8.117188 -6.46875 7.578125 -6.335938 7.171875 -6.078125 C 6.765625 -5.773438 6.5625 -5.378906 6.5625 -4.890625 Z M 6.5625 -4.890625 "/></g></g></g><g fill="#52639b" fill-opacity="1"><g transform="translate(829.796439, 541.294985)"><g><path d="M 10.25 -30.796875 L 9.109375 0 L 1.015625 0 L 0.875 -30.265625 Z M 10.25 -30.796875 "/></g></g></g><g fill="#52639b" fill-opacity="1"><g transform="translate(840.926459, 541.294985)"><g/></g></g><g fill="#52639b" fill-opacity="1"><g transform="translate(856.323705, 541.294985)"><g><path d="M 0.875 -30.359375 L 21.390625 -30.796875 L 21.390625 -22 L 8.84375 -21.5625 L 8.84375 -17.078125 L 18.78125 -17.953125 L 18.78125 -9.8125 L 9.28125 -9.375 L 9.28125 0 L 0.875 0 Z M 0.875 -30.359375 "/></g></g></g><g fill="#52639b" fill-opacity="1"><g transform="translate(875.94405, 541.294985)"><g><path d="M 0.875 -10.515625 C 0.875 -11.890625 0.9375 -13.269531 1.0625 -14.65625 C 1.175781 -16 1.554688 -17.242188 2.203125 -18.390625 C 2.847656 -19.503906 3.875 -20.425781 5.28125 -21.15625 C 6.65625 -21.894531 8.617188 -22.320312 11.171875 -22.4375 L 12.09375 -22.4375 C 14.53125 -22.4375 16.410156 -22.070312 17.734375 -21.34375 C 19.054688 -20.582031 20.039062 -19.628906 20.6875 -18.484375 C 21.300781 -17.304688 21.664062 -16.03125 21.78125 -14.65625 C 21.894531 -13.25 21.953125 -11.898438 21.953125 -10.609375 C 21.953125 -9.171875 21.863281 -7.773438 21.6875 -6.421875 C 21.507812 -5.046875 21.070312 -3.816406 20.375 -2.734375 C 19.664062 -1.640625 18.59375 -0.769531 17.15625 -0.125 C 15.71875 0.539062 13.738281 0.875 11.21875 0.875 C 8.90625 0.875 7.070312 0.539062 5.71875 -0.125 C 4.34375 -0.800781 3.300781 -1.679688 2.59375 -2.765625 C 1.863281 -3.828125 1.394531 -5.046875 1.1875 -6.421875 C 0.976562 -7.773438 0.875 -9.140625 0.875 -10.515625 Z M 11.3125 -15.140625 C 10.601562 -15.015625 10.070312 -14.867188 9.71875 -14.703125 C 9.34375 -14.492188 9.082031 -14.195312 8.9375 -13.8125 C 8.757812 -13.4375 8.65625 -12.953125 8.625 -12.359375 C 8.59375 -11.773438 8.578125 -11.015625 8.578125 -10.078125 C 8.578125 -9.171875 8.59375 -8.378906 8.625 -7.703125 C 8.65625 -7.023438 8.757812 -6.46875 8.9375 -6.03125 C 9.082031 -5.5625 9.34375 -5.222656 9.71875 -5.015625 C 10.070312 -4.773438 10.601562 -4.65625 11.3125 -4.65625 C 12.039062 -4.65625 12.597656 -4.773438 12.984375 -5.015625 C 13.359375 -5.222656 13.632812 -5.5625 13.8125 -6.03125 C 13.988281 -6.46875 14.09375 -7.023438 14.125 -7.703125 C 14.125 -8.378906 14.125 -9.171875 14.125 -10.078125 C 14.125 -10.898438 14.140625 -11.632812 14.171875 -12.28125 C 14.171875 -12.925781 14.125 -13.46875 14.03125 -13.90625 C 13.945312 -14.34375 13.773438 -14.679688 13.515625 -14.921875 C 13.242188 -15.148438 12.84375 -15.265625 12.3125 -15.265625 C 12.050781 -15.265625 11.71875 -15.222656 11.3125 -15.140625 Z M 11.3125 -15.140625 "/></g></g></g><g fill="#52639b" fill-opacity="1"><g transform="translate(898.775973, 541.294985)"><g><path d="M 9.234375 -21.5625 L 8.796875 -16.140625 C 9.390625 -18.140625 10.242188 -19.625 11.359375 -20.59375 C 12.472656 -21.53125 13.6875 -22 15 -22 C 16 -22 16.820312 -21.796875 17.46875 -21.390625 C 18.113281 -20.941406 18.628906 -20.304688 19.015625 -19.484375 C 19.390625 -18.671875 19.648438 -17.660156 19.796875 -16.453125 C 19.941406 -15.253906 20 -13.890625 19.96875 -12.359375 L 11.578125 -11.484375 C 11.515625 -12.484375 11.441406 -13.273438 11.359375 -13.859375 C 11.265625 -14.441406 10.910156 -14.734375 10.296875 -14.734375 C 9.910156 -14.734375 9.367188 -14.601562 8.671875 -14.34375 L 8.671875 0 L 1.015625 0 C 1.015625 -2.613281 1.015625 -5.164062 1.015625 -7.65625 C 0.984375 -10.144531 0.96875 -12.390625 0.96875 -14.390625 C 0.9375 -16.703125 0.90625 -18.914062 0.875 -21.03125 Z M 9.234375 -21.5625 "/></g></g></g><g fill="#52639b" fill-opacity="1"><g transform="translate(918.968386, 541.294985)"><g><path d="M 11.578125 -22.53125 C 13.390625 -22.53125 14.941406 -22.367188 16.234375 -22.046875 C 17.523438 -21.691406 18.597656 -21.132812 19.453125 -20.375 C 20.296875 -19.613281 20.925781 -18.613281 21.34375 -17.375 C 21.71875 -16.113281 21.90625 -14.578125 21.90625 -12.765625 L 21.90625 -11.21875 C 21.90625 -10.601562 21.832031 -9.972656 21.6875 -9.328125 C 21.539062 -8.648438 21.289062 -7.988281 20.9375 -7.34375 C 20.59375 -6.675781 20.066406 -6.078125 19.359375 -5.546875 C 18.628906 -5.015625 17.691406 -4.585938 16.546875 -4.265625 C 15.398438 -3.941406 13.976562 -3.78125 12.28125 -3.78125 L 12.1875 -2.859375 C 14.351562 -2.828125 16.113281 -2.664062 17.46875 -2.375 C 18.8125 -2.082031 19.867188 -1.703125 20.640625 -1.234375 C 21.367188 -0.734375 21.878906 -0.160156 22.171875 0.484375 C 22.441406 1.160156 22.578125 1.863281 22.578125 2.59375 C 22.578125 3.445312 22.28125 4.238281 21.6875 4.96875 C 21.070312 5.707031 20.238281 6.351562 19.1875 6.90625 C 18.125 7.46875 16.890625 7.894531 15.484375 8.1875 C 14.078125 8.507812 12.550781 8.671875 10.90625 8.671875 C 9.59375 8.671875 8.289062 8.523438 7 8.234375 C 5.675781 7.960938 4.5 7.566406 3.46875 7.046875 C 2.445312 6.546875 1.613281 5.941406 0.96875 5.234375 C 0.320312 4.535156 0 3.742188 0 2.859375 C 0 1.804688 0.304688 0.925781 0.921875 0.21875 C 1.535156 -0.488281 2.3125 -1.0625 3.25 -1.5 C 4.1875 -1.9375 5.21875 -2.257812 6.34375 -2.46875 C 7.425781 -2.664062 8.460938 -2.796875 9.453125 -2.859375 L 9.328125 -3.734375 C 7.804688 -3.734375 6.53125 -3.882812 5.5 -4.1875 C 4.46875 -4.445312 3.628906 -4.796875 2.984375 -5.234375 C 2.316406 -5.671875 1.820312 -6.171875 1.5 -6.734375 C 1.175781 -7.285156 0.941406 -7.859375 0.796875 -8.453125 C 0.648438 -9.035156 0.578125 -9.601562 0.578125 -10.15625 L 0.578125 -11.53125 C 0.578125 -13.613281 0.722656 -15.328125 1.015625 -16.671875 C 1.304688 -17.992188 1.789062 -19.066406 2.46875 -19.890625 C 3.113281 -20.679688 3.992188 -21.265625 5.109375 -21.640625 C 6.191406 -21.992188 7.539062 -22.242188 9.15625 -22.390625 C 8.832031 -23.097656 8.566406 -23.863281 8.359375 -24.6875 C 8.128906 -25.507812 8.015625 -26.34375 8.015625 -27.1875 C 8.015625 -27.800781 8.273438 -28.332031 8.796875 -28.78125 C 9.296875 -29.1875 9.941406 -29.535156 10.734375 -29.828125 C 11.523438 -30.117188 12.40625 -30.351562 13.375 -30.53125 C 14.34375 -30.707031 15.28125 -30.84375 16.1875 -30.9375 C 17.070312 -31.019531 17.894531 -31.09375 18.65625 -31.15625 C 19.382812 -31.1875 19.910156 -31.203125 20.234375 -31.203125 C 20.210938 -31.171875 20.1875 -30.921875 20.15625 -30.453125 C 20.125 -29.984375 20.09375 -29.425781 20.0625 -28.78125 C 20 -28.101562 19.957031 -27.410156 19.9375 -26.703125 C 19.90625 -25.972656 19.875 -25.316406 19.84375 -24.734375 L 14.34375 -24.28125 C 13.40625 -24.257812 12.703125 -24.1875 12.234375 -24.0625 C 11.765625 -23.945312 11.457031 -23.816406 11.3125 -23.671875 C 11.164062 -23.492188 11.132812 -23.316406 11.21875 -23.140625 C 11.28125 -22.941406 11.398438 -22.738281 11.578125 -22.53125 Z M 12.015625 -16.5 L 11.703125 -16.5 C 11.585938 -16.5 11.457031 -16.484375 11.3125 -16.453125 C 10.601562 -16.398438 10.070312 -16.285156 9.71875 -16.109375 C 9.34375 -15.929688 9.066406 -15.707031 8.890625 -15.4375 C 8.710938 -15.144531 8.625 -14.820312 8.625 -14.46875 C 8.59375 -14.09375 8.578125 -13.65625 8.578125 -13.15625 C 8.578125 -12.25 8.59375 -11.5 8.625 -10.90625 C 8.65625 -10.320312 8.757812 -9.867188 8.9375 -9.546875 C 9.082031 -9.191406 9.34375 -8.957031 9.71875 -8.84375 C 10.070312 -8.695312 10.601562 -8.625 11.3125 -8.625 C 12.039062 -8.625 12.597656 -8.695312 12.984375 -8.84375 C 13.359375 -8.957031 13.632812 -9.191406 13.8125 -9.546875 C 13.988281 -9.867188 14.09375 -10.320312 14.125 -10.90625 C 14.125 -11.5 14.125 -12.25 14.125 -13.15625 C 14.125 -13.59375 14.140625 -14.019531 14.171875 -14.4375 C 14.171875 -14.84375 14.109375 -15.207031 13.984375 -15.53125 C 13.867188 -15.820312 13.664062 -16.054688 13.375 -16.234375 C 13.082031 -16.410156 12.628906 -16.5 12.015625 -16.5 Z M 16.984375 2.0625 C 16.984375 1.71875 16.441406 1.410156 15.359375 1.140625 C 14.273438 0.878906 12.941406 0.75 11.359375 0.75 C 10.585938 0.75 9.867188 0.78125 9.203125 0.84375 C 8.523438 0.925781 7.9375 1.023438 7.4375 1.140625 C 6.90625 1.253906 6.492188 1.390625 6.203125 1.546875 C 5.878906 1.710938 5.71875 1.882812 5.71875 2.0625 C 5.71875 2.238281 5.878906 2.398438 6.203125 2.546875 C 6.492188 2.722656 6.90625 2.867188 7.4375 2.984375 C 7.9375 3.109375 8.523438 3.195312 9.203125 3.25 C 9.867188 3.3125 10.585938 3.34375 11.359375 3.34375 C 12.941406 3.34375 14.273438 3.222656 15.359375 2.984375 C 16.441406 2.753906 16.984375 2.445312 16.984375 2.0625 Z M 16.984375 2.0625 "/></g></g></g><g fill="#52639b" fill-opacity="1"><g transform="translate(941.40439, 541.294985)"><g><path d="M 21.953125 -9.28125 C 21.921875 -7.957031 21.789062 -6.695312 21.5625 -5.5 C 21.289062 -4.269531 20.789062 -3.1875 20.0625 -2.25 C 19.300781 -1.3125 18.234375 -0.5625 16.859375 0 C 15.441406 0.582031 13.5625 0.875 11.21875 0.875 C 8.90625 0.875 7.070312 0.539062 5.71875 -0.125 C 4.34375 -0.800781 3.300781 -1.679688 2.59375 -2.765625 C 1.863281 -3.828125 1.394531 -5.046875 1.1875 -6.421875 C 0.976562 -7.773438 0.875 -9.140625 0.875 -10.515625 C 0.875 -11.890625 0.9375 -13.269531 1.0625 -14.65625 C 1.175781 -16 1.554688 -17.242188 2.203125 -18.390625 C 2.847656 -19.503906 3.875 -20.425781 5.28125 -21.15625 C 6.65625 -21.894531 8.617188 -22.320312 11.171875 -22.4375 L 11.921875 -22.4375 C 14.179688 -22.4375 15.972656 -22.054688 17.296875 -21.296875 C 18.585938 -20.503906 19.582031 -19.519531 20.28125 -18.34375 C 20.957031 -17.175781 21.398438 -15.914062 21.609375 -14.5625 C 21.804688 -13.1875 21.921875 -11.894531 21.953125 -10.6875 L 8.578125 -9.5 C 8.578125 -8.507812 8.59375 -7.660156 8.625 -6.953125 C 8.65625 -6.222656 8.757812 -5.617188 8.9375 -5.140625 C 9.082031 -4.671875 9.34375 -4.335938 9.71875 -4.140625 C 10.070312 -3.898438 10.601562 -3.78125 11.3125 -3.78125 C 12.007812 -3.78125 12.550781 -3.882812 12.9375 -4.09375 C 13.320312 -4.269531 13.597656 -4.5625 13.765625 -4.96875 C 13.941406 -5.351562 14.046875 -5.835938 14.078125 -6.421875 C 14.109375 -7.003906 14.125 -7.691406 14.125 -8.484375 Z M 14.03125 -12.453125 L 13.984375 -12.453125 L 13.640625 -15.703125 C 13.554688 -16.148438 13.320312 -16.535156 12.9375 -16.859375 C 12.550781 -17.179688 12.097656 -17.34375 11.578125 -17.34375 C 11.253906 -17.34375 10.914062 -17.296875 10.5625 -17.203125 C 10.207031 -17.117188 9.898438 -16.988281 9.640625 -16.8125 C 9.347656 -16.632812 9.113281 -16.410156 8.9375 -16.140625 C 8.726562 -15.878906 8.625 -15.5625 8.625 -15.1875 L 8.578125 -11.921875 L 8.578125 -11.875 L 13.984375 -12.453125 L 13.984375 -12.40625 Z M 14.03125 -12.453125 "/></g></g></g><g fill="#52639b" fill-opacity="1"><g transform="translate(964.236359, 541.294985)"><g/></g></g><g fill="#52639b" fill-opacity="1"><g transform="translate(979.633605, 541.294985)"><g><path d="M 0.4375 0 L 7.484375 -30.359375 L 19.71875 -30.796875 L 26.75 0 L 17.734375 0 L 16.671875 -5.859375 L 10.515625 -5.859375 L 9.453125 0 Z M 16.0625 -10.203125 L 14.703125 -18.875 L 12.5 -18.875 L 11.125 -10.203125 Z M 16.0625 -10.203125 "/></g></g></g><g fill="#52639b" fill-opacity="1"><g transform="translate(1005.500913, 541.294985)"><g><path d="M 0.875 -10.90625 C 0.875 -12.320312 0.9375 -13.703125 1.0625 -15.046875 C 1.175781 -16.367188 1.554688 -17.554688 2.203125 -18.609375 C 2.847656 -19.671875 3.859375 -20.550781 5.234375 -21.25 C 6.609375 -21.925781 8.5625 -22.320312 11.09375 -22.4375 L 11.875 -22.4375 C 14.082031 -22.4375 15.84375 -22.085938 17.15625 -21.390625 C 18.445312 -20.648438 19.429688 -19.738281 20.109375 -18.65625 C 20.785156 -17.539062 21.222656 -16.320312 21.421875 -15 C 21.628906 -13.65625 21.75 -12.363281 21.78125 -11.125 L 13.984375 -10.609375 C 13.984375 -11.128906 13.972656 -11.640625 13.953125 -12.140625 C 13.890625 -12.640625 13.785156 -13.097656 13.640625 -13.515625 C 13.460938 -13.921875 13.242188 -14.253906 12.984375 -14.515625 C 12.691406 -14.753906 12.296875 -14.875 11.796875 -14.875 C 11.554688 -14.875 11.363281 -14.859375 11.21875 -14.828125 C 10.539062 -14.710938 10.03125 -14.550781 9.6875 -14.34375 C 9.300781 -14.132812 9.035156 -13.84375 8.890625 -13.46875 C 8.710938 -13.050781 8.609375 -12.535156 8.578125 -11.921875 C 8.546875 -11.304688 8.53125 -10.515625 8.53125 -9.546875 C 8.53125 -8.609375 8.546875 -7.785156 8.578125 -7.078125 C 8.609375 -6.378906 8.710938 -5.796875 8.890625 -5.328125 C 9.035156 -4.859375 9.300781 -4.503906 9.6875 -4.265625 C 10.03125 -4.035156 10.539062 -3.921875 11.21875 -3.921875 C 11.894531 -3.921875 12.421875 -4.019531 12.796875 -4.21875 C 13.179688 -4.425781 13.460938 -4.734375 13.640625 -5.140625 C 13.816406 -5.554688 13.921875 -6.085938 13.953125 -6.734375 C 13.972656 -7.347656 13.984375 -8.066406 13.984375 -8.890625 L 21.78125 -9.640625 C 21.75 -8.285156 21.617188 -6.976562 21.390625 -5.71875 C 21.117188 -4.425781 20.617188 -3.296875 19.890625 -2.328125 C 19.128906 -1.335938 18.054688 -0.546875 16.671875 0.046875 C 15.296875 0.628906 13.445312 0.921875 11.125 0.921875 C 8.84375 0.921875 7.023438 0.570312 5.671875 -0.125 C 4.296875 -0.800781 3.253906 -1.710938 2.546875 -2.859375 C 1.847656 -3.972656 1.394531 -5.234375 1.1875 -6.640625 C 0.976562 -8.046875 0.875 -9.46875 0.875 -10.90625 Z M 0.875 -10.90625 "/></g></g></g><g fill="#52639b" fill-opacity="1"><g transform="translate(1028.068936, 541.294985)"><g><path d="M 0.875 -10.90625 C 0.875 -12.320312 0.9375 -13.703125 1.0625 -15.046875 C 1.175781 -16.367188 1.554688 -17.554688 2.203125 -18.609375 C 2.847656 -19.671875 3.859375 -20.550781 5.234375 -21.25 C 6.609375 -21.925781 8.5625 -22.320312 11.09375 -22.4375 L 11.875 -22.4375 C 14.082031 -22.4375 15.84375 -22.085938 17.15625 -21.390625 C 18.445312 -20.648438 19.429688 -19.738281 20.109375 -18.65625 C 20.785156 -17.539062 21.222656 -16.320312 21.421875 -15 C 21.628906 -13.65625 21.75 -12.363281 21.78125 -11.125 L 13.984375 -10.609375 C 13.984375 -11.128906 13.972656 -11.640625 13.953125 -12.140625 C 13.890625 -12.640625 13.785156 -13.097656 13.640625 -13.515625 C 13.460938 -13.921875 13.242188 -14.253906 12.984375 -14.515625 C 12.691406 -14.753906 12.296875 -14.875 11.796875 -14.875 C 11.554688 -14.875 11.363281 -14.859375 11.21875 -14.828125 C 10.539062 -14.710938 10.03125 -14.550781 9.6875 -14.34375 C 9.300781 -14.132812 9.035156 -13.84375 8.890625 -13.46875 C 8.710938 -13.050781 8.609375 -12.535156 8.578125 -11.921875 C 8.546875 -11.304688 8.53125 -10.515625 8.53125 -9.546875 C 8.53125 -8.609375 8.546875 -7.785156 8.578125 -7.078125 C 8.609375 -6.378906 8.710938 -5.796875 8.890625 -5.328125 C 9.035156 -4.859375 9.300781 -4.503906 9.6875 -4.265625 C 10.03125 -4.035156 10.539062 -3.921875 11.21875 -3.921875 C 11.894531 -3.921875 12.421875 -4.019531 12.796875 -4.21875 C 13.179688 -4.425781 13.460938 -4.734375 13.640625 -5.140625 C 13.816406 -5.554688 13.921875 -6.085938 13.953125 -6.734375 C 13.972656 -7.347656 13.984375 -8.066406 13.984375 -8.890625 L 21.78125 -9.640625 C 21.75 -8.285156 21.617188 -6.976562 21.390625 -5.71875 C 21.117188 -4.425781 20.617188 -3.296875 19.890625 -2.328125 C 19.128906 -1.335938 18.054688 -0.546875 16.671875 0.046875 C 15.296875 0.628906 13.445312 0.921875 11.125 0.921875 C 8.84375 0.921875 7.023438 0.570312 5.671875 -0.125 C 4.296875 -0.800781 3.253906 -1.710938 2.546875 -2.859375 C 1.847656 -3.972656 1.394531 -5.234375 1.1875 -6.640625 C 0.976562 -8.046875 0.875 -9.46875 0.875 -10.90625 Z M 0.875 -10.90625 "/></g></g></g><g fill="#52639b" fill-opacity="1"><g transform="translate(1050.636867, 541.294985)"><g><path d="M 0.875 -10.515625 C 0.875 -11.890625 0.9375 -13.269531 1.0625 -14.65625 C 1.175781 -16 1.554688 -17.242188 2.203125 -18.390625 C 2.847656 -19.503906 3.875 -20.425781 5.28125 -21.15625 C 6.65625 -21.894531 8.617188 -22.320312 11.171875 -22.4375 L 12.09375 -22.4375 C 14.53125 -22.4375 16.410156 -22.070312 17.734375 -21.34375 C 19.054688 -20.582031 20.039062 -19.628906 20.6875 -18.484375 C 21.300781 -17.304688 21.664062 -16.03125 21.78125 -14.65625 C 21.894531 -13.25 21.953125 -11.898438 21.953125 -10.609375 C 21.953125 -9.171875 21.863281 -7.773438 21.6875 -6.421875 C 21.507812 -5.046875 21.070312 -3.816406 20.375 -2.734375 C 19.664062 -1.640625 18.59375 -0.769531 17.15625 -0.125 C 15.71875 0.539062 13.738281 0.875 11.21875 0.875 C 8.90625 0.875 7.070312 0.539062 5.71875 -0.125 C 4.34375 -0.800781 3.300781 -1.679688 2.59375 -2.765625 C 1.863281 -3.828125 1.394531 -5.046875 1.1875 -6.421875 C 0.976562 -7.773438 0.875 -9.140625 0.875 -10.515625 Z M 11.3125 -15.140625 C 10.601562 -15.015625 10.070312 -14.867188 9.71875 -14.703125 C 9.34375 -14.492188 9.082031 -14.195312 8.9375 -13.8125 C 8.757812 -13.4375 8.65625 -12.953125 8.625 -12.359375 C 8.59375 -11.773438 8.578125 -11.015625 8.578125 -10.078125 C 8.578125 -9.171875 8.59375 -8.378906 8.625 -7.703125 C 8.65625 -7.023438 8.757812 -6.46875 8.9375 -6.03125 C 9.082031 -5.5625 9.34375 -5.222656 9.71875 -5.015625 C 10.070312 -4.773438 10.601562 -4.65625 11.3125 -4.65625 C 12.039062 -4.65625 12.597656 -4.773438 12.984375 -5.015625 C 13.359375 -5.222656 13.632812 -5.5625 13.8125 -6.03125 C 13.988281 -6.46875 14.09375 -7.023438 14.125 -7.703125 C 14.125 -8.378906 14.125 -9.171875 14.125 -10.078125 C 14.125 -10.898438 14.140625 -11.632812 14.171875 -12.28125 C 14.171875 -12.925781 14.125 -13.46875 14.03125 -13.90625 C 13.945312 -14.34375 13.773438 -14.679688 13.515625 -14.921875 C 13.242188 -15.148438 12.84375 -15.265625 12.3125 -15.265625 C 12.050781 -15.265625 11.71875 -15.222656 11.3125 -15.140625 Z M 11.3125 -15.140625 "/></g></g></g><g fill="#52639b" fill-opacity="1"><g transform="translate(1073.468836, 541.294985)"><g><path d="M 1.359375 -21.46875 L 9.234375 -22 L 9.015625 -10.078125 C 9.015625 -9.222656 9.03125 -8.457031 9.0625 -7.78125 C 9.0625 -7.113281 9.132812 -6.546875 9.28125 -6.078125 C 9.425781 -5.609375 9.660156 -5.253906 9.984375 -5.015625 C 10.273438 -4.753906 10.71875 -4.625 11.3125 -4.625 C 11.363281 -4.625 11.4375 -4.632812 11.53125 -4.65625 C 11.582031 -4.65625 11.65625 -4.65625 11.75 -4.65625 C 12.476562 -4.71875 13.035156 -4.867188 13.421875 -5.109375 C 13.796875 -5.335938 14.070312 -5.671875 14.25 -6.109375 C 14.425781 -6.523438 14.53125 -7.070312 14.5625 -7.75 C 14.5625 -8.394531 14.5625 -9.171875 14.5625 -10.078125 L 14.515625 -21.46875 L 22.359375 -22 L 22.390625 -10.609375 C 22.390625 -9.171875 22.300781 -7.773438 22.125 -6.421875 C 21.957031 -5.046875 21.519531 -3.816406 20.8125 -2.734375 C 20.101562 -1.640625 19.03125 -0.769531 17.59375 -0.125 C 16.15625 0.539062 14.175781 0.875 11.65625 0.875 C 9.34375 0.875 7.507812 0.539062 6.15625 -0.125 C 4.78125 -0.800781 3.738281 -1.679688 3.03125 -2.765625 C 2.300781 -3.828125 1.832031 -5.046875 1.625 -6.421875 C 1.414062 -7.773438 1.3125 -9.140625 1.3125 -10.515625 Z M 1.359375 -21.46875 "/></g></g></g><g fill="#52639b" fill-opacity="1"><g transform="translate(1096.740624, 541.294985)"><g><path d="M 9.375 -22 L 9.0625 -15.75 C 9.351562 -16.570312 9.734375 -17.363281 10.203125 -18.125 C 10.648438 -18.882812 11.164062 -19.578125 11.75 -20.203125 C 12.300781 -20.785156 12.914062 -21.253906 13.59375 -21.609375 C 14.238281 -21.953125 14.914062 -22.125 15.625 -22.125 C 17.726562 -22.125 19.328125 -21.757812 20.421875 -21.03125 C 21.472656 -20.269531 22.203125 -19.023438 22.609375 -17.296875 C 22.992188 -15.566406 23.15625 -13.289062 23.09375 -10.46875 C 23.007812 -7.625 22.878906 -4.132812 22.703125 0 L 13.953125 0 C 14.035156 -0.613281 14.132812 -1.421875 14.25 -2.421875 C 14.34375 -3.390625 14.429688 -4.429688 14.515625 -5.546875 C 14.578125 -6.660156 14.625 -7.789062 14.65625 -8.9375 C 14.6875 -10.070312 14.671875 -11.113281 14.609375 -12.0625 C 14.515625 -12.96875 14.367188 -13.710938 14.171875 -14.296875 C 13.960938 -14.890625 13.65625 -15.1875 13.25 -15.1875 C 12.3125 -15.1875 11.457031 -14.945312 10.6875 -14.46875 C 9.894531 -13.976562 9.296875 -13.394531 8.890625 -12.71875 L 8.234375 0 L 1.015625 0 C 1.015625 -2.488281 1.015625 -5.007812 1.015625 -7.5625 C 0.984375 -10.09375 0.96875 -12.382812 0.96875 -14.4375 C 0.9375 -16.863281 0.90625 -19.207031 0.875 -21.46875 Z M 9.375 -22 "/></g></g></g><g fill="#52639b" fill-opacity="1"><g transform="translate(1120.672325, 541.294985)"><g><path d="M 0.4375 -21.203125 L 4.578125 -21.296875 L 4.40625 -29.78125 L 13.03125 -30.84375 L 12.578125 -21.640625 L 18.4375 -22 L 18.078125 -13.546875 L 12.671875 -13.515625 L 12.671875 0 L 4.3125 0 L 4.703125 -13.328125 L 0.65625 -13.0625 Z M 0.4375 -21.203125 "/></g></g></g></svg>