<svg xmlns="http://www.w3.org/2000/svg" xmlns:xlink="http://www.w3.org/1999/xlink" width="1920" zoomAndPan="magnify" viewBox="0 0 1440 809.999993" height="1080" preserveAspectRatio="xMidYMid meet" version="1.0"><defs><clipPath id="ccc462a215"><path d="M 598.5 289.195312 L 841.871094 289.195312 L 841.871094 520.804688 L 598.5 520.804688 Z M 598.5 289.195312 " clip-rule="nonzero"/></clipPath><clipPath id="ddf7bc6986"><path d="M 720 289.195312 L 748.683594 377.664062 L 841.5 377.664062 L 766.410156 432.335938 L 795.089844 520.804688 L 720 466.128906 L 644.910156 520.804688 L 673.589844 432.335938 L 598.5 377.664062 L 691.316406 377.664062 Z M 720 289.195312 " clip-rule="nonzero"/></clipPath><clipPath id="91743e76d8"><path d="M 0.5 0.195312 L 243.679688 0.195312 L 243.679688 231.804688 L 0.5 231.804688 Z M 0.5 0.195312 " clip-rule="nonzero"/></clipPath><clipPath id="444d4c1e7f"><path d="M 122 0.195312 L 150.683594 88.664062 L 243.5 88.664062 L 168.410156 143.335938 L 197.089844 231.804688 L 122 177.128906 L 46.910156 231.804688 L 75.589844 143.335938 L 0.5 88.664062 L 93.316406 88.664062 Z M 122 0.195312 " clip-rule="nonzero"/></clipPath><clipPath id="15a92fba1f"><rect x="0" width="244" y="0" height="232"/></clipPath><clipPath id="3be8220b09"><path d="M 598.5 289.195312 L 841.5 289.195312 L 841.5 520.804688 L 598.5 520.804688 Z M 598.5 289.195312 " clip-rule="nonzero"/></clipPath><clipPath id="aae6b1a45e"><path d="M 720 289.195312 L 748.683594 377.664062 L 841.5 377.664062 L 766.410156 432.335938 L 795.089844 520.804688 L 720 466.128906 L 644.910156 520.804688 L 673.589844 432.335938 L 598.5 377.664062 L 691.316406 377.664062 Z M 720 289.195312 " clip-rule="nonzero"/></clipPath></defs><g clip-path="url(#ccc462a215)"><g clip-path="url(#ddf7bc6986)"><g transform="matrix(1, 0, 0, 1, 598, 289)"><g clip-path="url(#15a92fba1f)"><g clip-path="url(#91743e76d8)"><g clip-path="url(#444d4c1e7f)"><path fill="#52639b" d="M 0.5 0.195312 L 243.871094 0.195312 L 243.871094 231.804688 L 0.5 231.804688 Z M 0.5 0.195312 " fill-opacity="1" fill-rule="nonzero"/></g></g></g></g></g></g><g clip-path="url(#3be8220b09)"><g clip-path="url(#aae6b1a45e)"><path fill="#f6bc5d" d="M 738.023438 318.042969 L 745.660156 341.585938 L 729.964844 346.675781 L 722.328125 323.132812 Z M 748.203125 349.433594 L 755.835938 372.976562 L 740.140625 378.066406 L 732.507812 354.523438 Z M 754.683594 369.414062 L 779.433594 369.414062 L 779.433594 385.914062 L 754.683594 385.914062 Z M 787.683594 369.414062 L 812.433594 369.414062 L 812.433594 385.914062 L 787.683594 385.914062 Z M 820.683594 369.414062 L 866.847656 369.414062 L 843.175781 386.644531 L 833.464844 373.308594 L 836.644531 370.992188 L 841.5 377.664062 L 841.5 385.914062 L 820.683594 385.914062 Z M 836.507812 391.503906 L 816.5 406.070312 L 806.789062 392.730469 L 826.796875 378.164062 Z M 809.832031 410.925781 L 789.824219 425.496094 L 780.109375 412.15625 L 800.117188 397.589844 Z M 783.152344 430.351562 L 771.265625 439.007812 L 766.410156 432.335938 L 774.257812 429.792969 L 777.355469 439.347656 L 761.660156 444.4375 L 756.714844 429.191406 L 773.441406 417.011719 Z M 779.898438 447.195312 L 787.53125 470.738281 L 771.835938 475.828125 L 764.203125 452.285156 Z M 790.078125 478.585938 L 797.710938 502.132812 L 782.015625 507.21875 L 774.378906 483.675781 Z M 800.253906 509.980469 L 810.773438 542.429688 L 777.265625 518.03125 L 786.976562 504.691406 L 799.949219 514.136719 L 795.089844 520.804688 L 787.242188 523.347656 L 784.558594 515.066406 Z M 770.59375 513.175781 L 750.585938 498.605469 L 760.300781 485.265625 L 780.308594 499.835938 Z M 743.917969 493.75 L 723.910156 479.179688 L 733.621094 465.84375 L 753.628906 480.410156 Z M 717.242188 474.324219 L 715.144531 472.796875 L 720 466.128906 L 724.855469 472.796875 L 706.945312 485.839844 L 697.230469 472.5 L 720 455.925781 L 726.953125 460.988281 Z M 700.273438 490.695312 L 680.265625 505.265625 L 670.554688 491.925781 L 690.5625 477.359375 Z M 673.597656 510.121094 L 653.589844 524.6875 L 643.878906 511.351562 L 663.886719 496.78125 Z M 638.144531 514.914062 L 645.78125 491.371094 L 661.476562 496.457031 L 653.84375 520 Z M 648.324219 483.519531 L 655.957031 459.976562 L 671.652344 465.066406 L 664.019531 488.609375 Z M 658.5 452.128906 L 665.742188 429.792969 L 673.589844 432.335938 L 668.734375 439.007812 L 667.710938 438.261719 L 677.421875 424.921875 L 683.285156 429.191406 L 674.195312 457.21875 Z M 661.039062 433.402344 L 641.03125 418.835938 L 650.742188 405.496094 L 670.753906 420.066406 Z M 634.363281 413.980469 L 614.355469 399.410156 L 624.066406 386.074219 L 644.074219 400.640625 Z M 607.683594 394.554688 L 573.152344 369.414062 L 605.882812 369.414062 L 605.882812 385.914062 L 598.5 385.914062 L 598.5 377.664062 L 603.355469 370.992188 L 617.398438 381.214844 Z M 614.132812 369.414062 L 638.882812 369.414062 L 638.882812 385.914062 L 614.132812 385.914062 Z M 647.132812 369.414062 L 671.882812 369.414062 L 671.882812 385.914062 L 647.132812 385.914062 Z M 680.132812 369.414062 L 691.316406 369.414062 L 691.316406 377.664062 L 683.46875 375.117188 L 687.652344 362.214844 L 703.347656 367.304688 L 697.316406 385.914062 L 680.132812 385.914062 Z M 690.199219 354.367188 L 697.832031 330.824219 L 713.527344 335.914062 L 705.894531 359.457031 Z M 700.375 322.976562 L 708.007812 299.433594 L 723.703125 304.519531 L 716.070312 328.066406 Z M 710.550781 291.585938 L 720 262.445312 L 735.480469 310.195312 L 719.785156 315.285156 L 712.152344 291.738281 L 720 289.195312 L 727.847656 291.738281 L 726.25 296.671875 Z M 710.550781 291.585938 " fill-opacity="1" fill-rule="nonzero"/></g></g></svg>